<svg width="167" height="49" viewBox="0 0 167 49" fill="none" xmlns="http://www.w3.org/2000/svg">
<path d="M162.596 0.375H4.15365C2.06676 0.375 0.375 2.02373 0.375 4.05754V44.6925C0.375 46.7263 2.06676 48.375 4.15365 48.375H162.596C164.683 48.375 166.375 46.7263 166.375 44.6925V4.05754C166.375 2.02373 164.683 0.375 162.596 0.375Z" fill="#222D33" stroke="#464F54" stroke-width="0.75"/>
<path d="M38.2083 23.1837C38.1705 19.3729 41.4102 17.5175 41.5562 17.4331C39.7228 14.824 36.8778 14.4708 35.8826 14.4445C33.4974 14.202 31.1826 15.836 29.9657 15.836C28.7272 15.836 26.8503 14.4656 24.833 14.5078C22.2368 14.5499 19.8084 16.0152 18.4725 18.287C15.725 22.9255 17.7748 29.7409 20.4088 33.4938C21.7285 35.3281 23.2645 37.3785 25.2819 37.3048C27.2506 37.2256 27.9861 36.0819 30.3713 36.0819C32.7295 36.0819 33.4218 37.3048 35.477 37.2573C37.5917 37.2256 38.9222 35.4125 40.1933 33.5571C41.7185 31.4539 42.3297 29.3825 42.3513 29.2717C42.308 29.2612 38.2462 27.7537 38.2083 23.1837Z" fill="white"/>
<path d="M34.3254 11.978C35.3855 10.6866 36.1157 8.92613 35.9102 7.14453C34.3741 7.21305 32.4596 8.17764 31.3508 9.44268C30.3718 10.5549 29.4956 12.3839 29.7228 14.0969C31.4481 14.2235 33.2167 13.2484 34.3254 11.978Z" fill="white"/>
<path d="M66.701 36.135H63.9535L62.4498 31.523H57.2198L55.7866 36.135H53.1147L58.3016 20.4434H61.4979L66.701 36.135ZM61.9956 29.5937L60.6381 25.4982C60.492 25.0818 60.2215 24.0961 59.8268 22.5412H59.7781C59.6158 23.2106 59.3616 24.191 59.0101 25.4982L57.6741 29.5937H61.9956Z" fill="white"/>
<path d="M80.0276 30.3372C80.0276 32.261 79.4976 33.7843 78.4267 34.9018C77.4694 35.8928 76.2849 36.3882 74.8679 36.3882C73.3373 36.3882 72.2393 35.8506 71.5687 34.7806H71.5254V40.7368H68.9455V28.545C68.9455 27.338 68.9131 26.094 68.8481 24.8237H71.1144L71.2603 26.6158H71.309C72.169 25.2664 73.4725 24.5918 75.2248 24.5918C76.5932 24.5918 77.7344 25.1188 78.6539 26.1731C79.5734 27.2273 80.0276 28.6188 80.0276 30.3372ZM77.4045 30.4321C77.4045 29.3304 77.1503 28.4238 76.6419 27.707C76.0848 26.9638 75.333 26.5895 74.3974 26.5895C73.7591 26.5895 73.1804 26.795 72.6666 27.2061C72.1474 27.6226 71.8121 28.1603 71.6498 28.8243C71.5687 29.1354 71.5308 29.3883 71.5308 29.5887V31.4757C71.5308 32.298 71.7904 32.9938 72.3043 33.5577C72.8235 34.127 73.4942 34.4063 74.3216 34.4063C75.2952 34.4063 76.0524 34.0427 76.5878 33.3153C77.1341 32.5878 77.4045 31.6285 77.4045 30.4321Z" fill="white"/>
<path d="M93.3812 30.3372C93.3812 32.261 92.8511 33.7843 91.7803 34.9018C90.8229 35.8928 89.6385 36.3882 88.2214 36.3882C86.6962 36.3882 85.5983 35.8506 84.9276 34.7806H84.8789V40.7368H82.299V28.545C82.299 27.338 82.2666 26.094 82.2017 24.8237H84.4678L84.6138 26.6158H84.6625C85.5171 25.2664 86.826 24.5918 88.5784 24.5918C89.9467 24.5918 91.0879 25.1188 92.0074 26.1731C92.9215 27.2273 93.3812 28.6188 93.3812 30.3372ZM90.7526 30.4321C90.7526 29.3304 90.4984 28.4238 89.9845 27.707C89.4275 26.9638 88.6811 26.5895 87.7401 26.5895C87.1018 26.5895 86.5231 26.795 86.0093 27.2061C85.4901 27.6226 85.1547 28.1603 84.9979 28.8243C84.9168 29.1354 84.8789 29.3883 84.8789 29.5887V31.4757C84.8789 32.298 85.1332 32.9938 85.6524 33.5577C86.1716 34.127 86.8423 34.4063 87.6697 34.4063C88.6379 34.4063 89.4005 34.0427 89.936 33.3153C90.4822 32.5878 90.7526 31.6285 90.7526 30.4321Z" fill="white"/>
<path d="M108.309 31.734C108.309 33.0675 107.832 34.1534 106.876 34.9915C105.826 35.9086 104.367 36.3619 102.495 36.3619C100.764 36.3619 99.374 36.0351 98.3193 35.3867L98.9196 33.2941C100.055 33.9636 101.294 34.2957 102.652 34.2957C103.625 34.2957 104.382 34.0848 104.923 33.6578C105.464 33.2309 105.734 32.6564 105.734 31.9447C105.734 31.307 105.513 30.7694 105.069 30.3371C104.626 29.8996 103.879 29.499 102.846 29.1248C100.028 28.0969 98.6221 26.6 98.6221 24.6233C98.6221 23.332 99.1144 22.2778 100.104 21.4556C101.088 20.6332 102.403 20.2168 104.047 20.2168C105.513 20.2168 106.73 20.4646 107.698 20.96L107.054 23.0104C106.146 22.5308 105.118 22.2884 103.971 22.2884C103.063 22.2884 102.354 22.5044 101.846 22.942C101.418 23.332 101.202 23.8064 101.202 24.3598C101.202 24.9819 101.445 25.4931 101.943 25.8937C102.37 26.2679 103.155 26.6685 104.285 27.106C105.67 27.6489 106.686 28.2867 107.34 29.0142C107.985 29.7415 108.309 30.6481 108.309 31.734Z" fill="white"/>
<path d="M116.838 26.7056H113.993V32.198C113.993 33.5948 114.496 34.2906 115.497 34.2906C115.957 34.2906 116.34 34.2536 116.644 34.1746L116.714 36.0827C116.205 36.2672 115.535 36.3621 114.707 36.3621C113.684 36.3621 112.89 36.0616 112.317 35.4554C111.743 34.8493 111.457 33.832 111.457 32.4035V26.7056H109.759V24.8186H111.457V22.7524L113.988 22.0039V24.8186H116.832V26.7056H116.838Z" fill="white"/>
<path d="M129.662 30.3846C129.662 32.124 129.153 33.5524 128.137 34.6699C127.065 35.819 125.649 36.3935 123.885 36.3935C122.182 36.3935 120.825 35.8453 119.812 34.7384C118.801 33.6368 118.298 32.2506 118.298 30.5744C118.298 28.8191 118.818 27.3854 119.861 26.268C120.9 25.1505 122.306 24.5918 124.075 24.5918C125.778 24.5918 127.147 25.1452 128.185 26.2469C129.17 27.3116 129.662 28.6926 129.662 30.3846ZM126.984 30.4636C126.984 29.42 126.752 28.5292 126.292 27.7807C125.751 26.8793 124.977 26.4261 123.977 26.4261C122.939 26.4261 122.155 26.8793 121.614 27.7807C121.149 28.5292 120.922 29.4358 120.922 30.5111C120.922 31.5548 121.149 32.4455 121.614 33.194C122.17 34.0954 122.95 34.5487 123.956 34.5487C124.94 34.5487 125.713 34.0901 126.27 33.173C126.746 32.4139 126.984 31.5074 126.984 30.4636Z" fill="white"/>
<path d="M138.045 27.0322C137.791 26.9901 137.521 26.9638 137.234 26.9638C136.325 26.9638 135.622 27.301 135.13 27.9652C134.703 28.5555 134.486 29.2987 134.486 30.2001V36.1353H131.906L131.928 28.3869C131.928 27.085 131.896 25.8937 131.836 24.8237H134.081L134.178 26.9901H134.249C134.518 26.2469 134.951 25.646 135.541 25.198C136.114 24.792 136.737 24.5918 137.407 24.5918C137.645 24.5918 137.861 24.6075 138.05 24.634V27.0322H138.045Z" fill="white"/>
<path d="M149.582 29.9414C149.582 30.3948 149.55 30.7691 149.49 31.08H141.751C141.778 32.1975 142.156 33.0513 142.87 33.6418C143.519 34.1688 144.368 34.4324 145.401 34.4324C146.543 34.4324 147.586 34.2531 148.527 33.9L148.933 35.6446C147.835 36.1085 146.537 36.3457 145.038 36.3457C143.243 36.3457 141.826 35.8291 140.798 34.7961C139.776 33.7629 139.257 32.3767 139.257 30.6425C139.257 28.9347 139.733 27.5169 140.691 26.3835C141.69 25.1712 143.043 24.5703 144.747 24.5703C146.417 24.5703 147.689 25.1765 148.549 26.3835C149.241 27.3428 149.582 28.5289 149.582 29.9414ZM147.121 29.2878C147.137 28.5447 146.97 27.9016 146.624 27.3587C146.175 26.6629 145.488 26.3098 144.568 26.3098C143.724 26.3098 143.043 26.6523 142.518 27.3324C142.085 27.8753 141.831 28.5236 141.756 29.2878H147.121Z" fill="white"/>
<path d="M56.7222 13.4106L56.1056 15.3924H54.7534L57.0575 8.39258H58.7288L61.0599 15.3924H59.6536L59.0046 13.4106H56.7222ZM58.7774 12.446L58.215 10.7224C58.0744 10.2954 57.9607 9.82102 57.8525 9.41516H57.831C57.7228 9.82102 57.62 10.3059 57.4902 10.7224L56.9385 12.446H58.7774Z" fill="white"/>
<path d="M63.0176 10.3379L63.8614 12.9048C64.0127 13.3529 64.1155 13.7535 64.2129 14.1699H64.2454C64.3427 13.7535 64.4563 13.3582 64.5969 12.9048L65.4298 10.3379H66.8036L64.824 15.3928H63.5369L61.606 10.3379H63.0176Z" fill="white"/>
<path d="M72.0285 14.1798C72.0285 14.6384 72.0501 15.0811 72.115 15.3922H70.9306L70.8332 14.8334H70.8008C70.4924 15.2287 69.9462 15.5081 69.2647 15.5081C68.2209 15.5081 67.6367 14.7702 67.6367 14.0006C67.6367 12.7356 68.7996 12.082 70.7141 12.0925V12.0134C70.7141 11.6814 70.5735 11.1331 69.6596 11.1331C69.1457 11.1331 68.6157 11.2913 68.2641 11.5074L68.0099 10.6746C68.3939 10.4479 69.0646 10.2266 69.8867 10.2266C71.5471 10.2266 72.0285 11.2544 72.0285 12.3666V14.1798ZM70.7521 12.9253C69.8272 12.9148 68.9402 13.1045 68.9402 13.8688C68.9402 14.3696 69.2701 14.5962 69.6866 14.5962C70.2166 14.5962 70.5898 14.2642 70.7196 13.9005C70.7521 13.8056 70.7521 13.716 70.7521 13.6211V12.9253Z" fill="white"/>
<path d="M74.5324 9.61537C74.0943 9.61537 73.8076 9.30438 73.8076 8.93015C73.8076 8.53482 74.1051 8.23438 74.5432 8.23438C74.9921 8.23438 75.268 8.53482 75.2787 8.93015C75.2787 9.30438 74.9921 9.61537 74.5432 9.61537H74.5324ZM73.8834 15.3977V10.3428H75.1922V15.3977H73.8834Z" fill="white"/>
<path d="M77.0801 8.01367H78.389V15.3984H77.0801V8.01367Z" fill="white"/>
<path d="M84.3112 14.1798C84.3112 14.6384 84.3328 15.0811 84.3977 15.3922H83.2133L83.1159 14.8334H83.0835C82.7752 15.2287 82.2343 15.5081 81.5474 15.5081C80.5036 15.5081 79.9194 14.7702 79.9194 14.0006C79.9194 12.7356 81.0823 12.082 82.9969 12.0925V12.0134C82.9969 11.6814 82.8562 11.1331 81.9423 11.1331C81.4284 11.1331 80.8984 11.2913 80.5468 11.5074L80.2926 10.6746C80.6766 10.4479 81.3473 10.2266 82.1694 10.2266C83.8298 10.2266 84.3112 11.2544 84.3112 12.3666V14.1798ZM83.0294 12.9253C82.1045 12.9148 81.2175 13.1045 81.2175 13.8688C81.2175 14.3696 81.5474 14.5962 81.9639 14.5962C82.4939 14.5962 82.8671 14.2642 82.9969 13.9005C83.0294 13.8056 83.0294 13.716 83.0294 13.6211V12.9253Z" fill="white"/>
<path d="M86.1605 8.01367H87.4693V11.034H87.4909C87.81 10.5437 88.3779 10.2222 89.1514 10.2222C90.4169 10.2222 91.3256 11.25 91.3147 12.7892C91.3147 14.6077 90.1303 15.509 88.9621 15.509C88.2914 15.509 87.6964 15.2613 87.3232 14.6393H87.3017L87.2367 15.3984H86.1172C86.1388 15.0557 86.1605 14.497 86.1605 13.9857V8.01367ZM87.4747 13.311C87.4747 13.4164 87.4855 13.5166 87.5071 13.6114C87.6477 14.1333 88.1021 14.5023 88.67 14.5023C89.4921 14.5023 89.9897 13.8698 89.9897 12.8419C89.9897 11.9511 89.5515 11.2237 88.6808 11.2237C88.1508 11.2237 87.6586 11.598 87.5179 12.1567C87.4964 12.2516 87.4747 12.3622 87.4747 12.4887V13.311Z" fill="white"/>
<path d="M92.8618 8.01367H94.1706V15.3984H92.8618V8.01367Z" fill="white"/>
<path d="M96.9942 13.2271C97.0266 14.1389 97.7621 14.5343 98.5897 14.5343C99.1954 14.5343 99.6227 14.4394 100.028 14.3077L100.218 15.1774C99.7687 15.3619 99.1521 15.4989 98.4058 15.4989C96.7237 15.4989 95.7285 14.4922 95.7285 12.9425C95.7285 11.5403 96.6047 10.2227 98.2652 10.2227C99.9472 10.2227 100.504 11.572 100.504 12.6842C100.504 12.9213 100.483 13.1111 100.461 13.2218H96.9942V13.2271ZM99.2766 12.3363C99.2873 11.8672 99.0765 11.1029 98.2002 11.1029C97.3889 11.1029 97.0482 11.8197 96.9942 12.3363H99.2766Z" fill="white"/>
<path d="M106.973 15.5081C105.513 15.5081 104.372 14.533 104.372 12.9042C104.372 11.2439 105.491 10.2266 107.06 10.2266C108.607 10.2266 109.64 11.286 109.64 12.8199C109.64 14.6806 108.298 15.5081 106.989 15.5081H106.973ZM107.016 14.5857C107.762 14.5857 108.282 13.8793 108.282 12.8515C108.282 12.0608 107.92 11.149 107.027 11.149C106.102 11.149 105.729 12.0292 105.729 12.8726C105.729 13.8477 106.232 14.5857 107.006 14.5857H107.016Z" fill="white"/>
<path d="M111.18 11.8447C111.18 11.265 111.159 10.7747 111.138 10.3373H112.278L112.344 11.0963H112.376C112.608 10.701 113.177 10.2266 114.037 10.2266C114.939 10.2266 115.881 10.7959 115.881 12.3982V15.3974H114.571V12.5405C114.571 11.8132 114.296 11.265 113.582 11.265C113.063 11.265 112.7 11.6287 112.56 12.0134C112.517 12.1188 112.495 12.2717 112.495 12.4193V15.3974H111.186V11.8447H111.18Z" fill="white"/>
<path d="M121.917 9.04102V10.3377H123.161V11.2918H121.917V13.5161C121.917 14.138 122.09 14.4491 122.588 14.4491C122.82 14.4491 122.95 14.4385 123.101 14.3964L123.123 15.3609C122.934 15.4347 122.582 15.498 122.177 15.498C121.685 15.498 121.295 15.3398 121.046 15.0816C120.759 14.7916 120.63 14.3225 120.63 13.6584V11.2918H119.894V10.3377H120.63V9.39417L121.917 9.04102Z" fill="white"/>
<path d="M124.621 8.01367H125.929V11.0234H125.951C126.114 10.7862 126.335 10.586 126.601 10.4541C126.865 10.3066 127.174 10.2275 127.503 10.2275C128.385 10.2275 129.315 10.7968 129.315 12.4202V15.3984H128.007V12.552C128.007 11.8246 127.731 11.2659 127.006 11.2659C126.492 11.2659 126.135 11.598 125.983 11.9827C125.941 12.0987 125.929 12.2305 125.929 12.3675V15.3984H124.621V8.01367Z" fill="white"/>
<path d="M132.112 13.2271C132.145 14.1389 132.88 14.5343 133.708 14.5343C134.313 14.5343 134.741 14.4394 135.146 14.3077L135.336 15.1774C134.886 15.3619 134.27 15.4989 133.524 15.4989C131.842 15.4989 130.846 14.4922 130.846 12.9425C130.846 11.5403 131.723 10.2227 133.383 10.2227C135.065 10.2227 135.622 11.572 135.622 12.6842C135.622 12.9213 135.601 13.1111 135.579 13.2218H132.112V13.2271ZM134.389 12.3363C134.4 11.8672 134.189 11.1029 133.312 11.1029C132.501 11.1029 132.161 11.8197 132.106 12.3363H134.389Z" fill="white"/>
</svg>
