<svg width="224" height="70" viewBox="0 0 224 70" fill="none" xmlns="http://www.w3.org/2000/svg">
<path d="M37.7319 13.8306C34.8299 15.5061 31.1192 14.5118 29.4437 11.6098C27.7681 8.70828 28.7624 4.99753 31.6644 3.32203C34.5664 1.64653 38.2771 2.64082 39.9526 5.54288C41.6275 8.44478 40.6332 12.1555 37.7319 13.8306Z" fill="#151A30"/>
<mask id="mask0_4985_75775" style="mask-type:alpha" maskUnits="userSpaceOnUse" x="28" y="2" width="13" height="13">
<path d="M28.8375 7.03166C29.6932 3.79179 33.0133 1.85915 36.2532 2.71493C39.4927 3.5702 41.4254 6.89029 40.5697 10.1302C39.714 13.37 36.3939 15.3027 33.154 14.4469C29.9146 13.5908 27.982 10.2707 28.8375 7.03166Z" fill="#374E9D"/>
</mask>
<g mask="url(#mask0_4985_75775)">
<path d="M30.7877 13.9589C30.7271 13.9177 30.6471 13.9322 30.6059 13.9928C30.4726 14.1868 30.3344 14.3661 30.1914 14.5285C30.2447 14.6012 30.2981 14.674 30.3514 14.7442C30.5138 14.5625 30.6689 14.3613 30.8192 14.1407C30.8604 14.0801 30.8459 14.0001 30.7853 13.9589L30.7877 13.9589Z" fill="#F4B527"/>
<path d="M37.1069 4.66995C37.1069 4.74267 37.1651 4.80084 37.2378 4.80084L40.4762 4.80084C40.4495 4.71116 40.4228 4.6239 40.3962 4.53906L37.2378 4.53906C37.1651 4.53906 37.1069 4.59724 37.1069 4.66995Z" fill="#F4B527"/>
<path d="M30.9503 13.7056C30.9697 13.7177 30.994 13.7226 31.0158 13.7226C31.0618 13.7226 31.1055 13.6983 31.1297 13.6571C31.9247 12.2949 32.5259 10.3897 32.8701 8.15242C33.1415 6.38297 34.6468 4.97953 36.4453 4.81713C36.518 4.80986 36.5714 4.74684 36.5641 4.67412C36.5568 4.6014 36.4938 4.54808 36.4211 4.55535C34.5038 4.72987 32.8992 6.22542 32.6083 8.11364C32.2689 10.3194 31.6775 12.1906 30.8994 13.5262C30.8631 13.5892 30.8849 13.6692 30.9479 13.7056L30.9503 13.7056Z" fill="#F4B527"/>
<path d="M32.6862 11.3537C32.6183 11.3319 32.5432 11.3707 32.5214 11.4386C32.0196 13.0044 31.3724 14.2236 30.6113 15.0647C30.6695 15.1326 30.7277 15.1956 30.7858 15.2611C31.5785 14.3909 32.2523 13.1329 32.7686 11.521C32.7904 11.4531 32.7516 11.378 32.6838 11.3562L32.6862 11.3537Z" fill="#F4B527"/>
<path d="M33.2591 8.2126C33.1161 9.14338 32.9295 10.0208 32.7065 10.8231C32.6871 10.8934 32.7283 10.9662 32.7961 10.9855C32.8664 11.0049 32.9392 10.9637 32.9585 10.8934C33.1864 10.0814 33.373 9.19428 33.5185 8.25381C33.7633 6.65888 35.174 5.45905 36.8004 5.45905L40.6447 5.45905C40.6254 5.37179 40.606 5.2821 40.5841 5.19727L36.8004 5.19727C35.0455 5.19727 33.5233 6.49405 33.2591 8.21502L33.2591 8.2126Z" fill="#F4B527"/>
<path d="M35.2408 6.62344C35.2989 6.58223 35.3135 6.49982 35.2699 6.43922C35.2286 6.38105 35.1462 6.3665 35.0856 6.41013C34.453 6.86583 34.0215 7.56149 33.9052 8.31775C33.4035 11.5852 32.4 14.0697 31.0547 15.541C31.1177 15.6016 31.1807 15.6597 31.2438 15.7179C32.6278 14.203 33.6531 11.6749 34.1621 8.35653C34.2688 7.67056 34.659 7.03793 35.2359 6.62344L35.2408 6.62344Z" fill="#F4B527"/>
<path d="M35.6491 6.0852C35.5836 6.11428 35.5521 6.19185 35.5812 6.25729C35.6103 6.32516 35.6854 6.35425 35.7533 6.32516C36.0854 6.18215 36.4392 6.10944 36.8004 6.10944L40.7732 6.10944C40.7586 6.02218 40.7441 5.93492 40.7271 5.84766L36.8004 5.84766C36.4029 5.84766 36.0175 5.92764 35.6515 6.0852L35.6491 6.0852Z" fill="#F4B527"/>
<path d="M36.8009 6.77155L38.3862 6.77155C38.4589 6.77155 38.517 6.71337 38.517 6.64066C38.517 6.56794 38.4589 6.50977 38.3862 6.50977L36.8009 6.50977C35.6883 6.50977 34.7236 7.32904 34.5564 8.41495C34.0352 11.7963 32.9784 14.385 31.5459 15.9654C31.6138 16.0212 31.6841 16.0721 31.7544 16.123C33.216 14.4989 34.2898 11.8714 34.8157 8.45373C34.9636 7.49387 35.8168 6.77155 36.8009 6.77155Z" fill="#F4B527"/>
<path d="M39.2051 6.64066C39.2051 6.71337 39.2632 6.77155 39.3359 6.77155L40.8582 6.77155C40.8485 6.68429 40.8388 6.59703 40.8267 6.50977L39.3335 6.50977C39.2608 6.50977 39.2026 6.56794 39.2026 6.64066L39.2051 6.64066Z" fill="#F4B527"/>
<path d="M33.7705 13.9566C33.7051 13.9251 33.6275 13.9517 33.596 14.0172C33.15 14.9358 32.6434 15.7115 32.0835 16.3465C32.1611 16.395 32.2362 16.4411 32.3138 16.4847C32.8761 15.8399 33.3827 15.0546 33.8287 14.1335C33.8602 14.0681 33.8336 13.9905 33.7681 13.959L33.7705 13.9566Z" fill="#F4B527"/>
<path d="M35.2039 8.51566C34.9276 10.3118 34.4961 11.9212 33.9241 13.2932C33.895 13.361 33.9289 13.4362 33.9944 13.4653C34.0622 13.4919 34.1374 13.4604 34.1665 13.395C34.7482 12.0012 35.1845 10.3748 35.4632 8.55687C35.5626 7.91453 36.1371 7.42975 36.8012 7.42975L40.9122 7.42975C40.9073 7.34249 40.9025 7.25281 40.8976 7.16797L36.8012 7.16797C36.0086 7.16797 35.3227 7.74728 35.2039 8.51808L35.2039 8.51566Z" fill="#F4B527"/>
<path d="M35.9193 9.02398C35.8491 9.00943 35.7788 9.06033 35.7666 9.13063C35.1994 12.3908 34.1184 14.9577 32.6616 16.6617C32.744 16.7005 32.8264 16.7368 32.9113 16.7732C34.3753 15.0328 35.4588 12.4441 36.026 9.17668C36.0381 9.10639 35.9896 9.03609 35.9193 9.02398Z" fill="#F4B527"/>
<path d="M35.9455 8.3298C35.9115 8.39282 35.9358 8.47281 36.0012 8.50675C36.0642 8.54068 36.1442 8.51644 36.1782 8.451C36.2969 8.22558 36.5418 8.08014 36.8011 8.08014L40.9314 8.08014C40.9314 7.99288 40.929 7.90562 40.9266 7.81836L36.8011 7.81836C36.4448 7.81836 36.1103 8.01954 35.9479 8.3298L35.9455 8.3298Z" fill="#F4B527"/>
<path d="M34.9495 14.5288C34.8841 14.4973 34.8065 14.524 34.775 14.5894C34.3436 15.4766 33.8491 16.2547 33.3037 16.9212C33.3958 16.9503 33.4879 16.977 33.58 17.0012C34.1084 16.3395 34.5884 15.5735 35.0101 14.7058C35.0417 14.6403 35.015 14.5628 34.9495 14.5313L34.9495 14.5288Z" fill="#F4B527"/>
<path d="M40.9319 8.47461L36.8015 8.47461C36.6537 8.47461 36.5228 8.57884 36.501 8.71215C36.2101 10.6101 35.7496 12.3189 35.1339 13.7927C35.1048 13.8605 35.1363 13.9357 35.2042 13.9647C35.2696 13.9938 35.3472 13.9623 35.3763 13.8945C35.9992 12.3989 36.467 10.6707 36.7603 8.75821C36.7627 8.75336 36.7773 8.73639 36.8015 8.73639L40.927 8.73639C40.927 8.65883 40.9319 8.58368 40.9319 8.5037C40.9319 8.494 40.9319 8.4843 40.9319 8.47461Z" fill="#F4B527"/>
<path d="M37.1962 9.34959C37.1259 9.33747 37.0557 9.38352 37.0435 9.45624C36.4763 12.6461 35.4268 15.2348 34.0112 17.0867C34.1106 17.1012 34.2124 17.1133 34.3118 17.123C35.708 15.2469 36.7405 12.6655 37.3029 9.50229C37.315 9.42958 37.269 9.36171 37.1962 9.34959Z" fill="#F4B527"/>
<path d="M37.6636 9.2598C37.6636 9.33252 37.7217 9.39069 37.7945 9.39069L40.8995 9.39069C40.9043 9.30343 40.9092 9.21617 40.914 9.12891L37.7945 9.12891C37.7217 9.12891 37.6636 9.18708 37.6636 9.2598Z" fill="#F4B527"/>
<path d="M37.6275 9.89618C37.3561 11.3287 36.9804 12.6643 36.515 13.8617C36.4883 13.9296 36.5222 14.0047 36.5901 14.0314C36.658 14.058 36.7331 14.0241 36.7598 13.9562C37.2203 12.7709 37.5912 11.4572 37.8651 10.0489L40.8368 10.0489C40.8465 9.96163 40.8562 9.87437 40.8659 9.78711L37.7584 9.78711C37.6954 9.78711 37.6421 9.83074 37.63 9.89376L37.6275 9.89618Z" fill="#F4B527"/>
<path d="M36.4441 14.3921C36.3762 14.363 36.3011 14.3921 36.272 14.46C35.843 15.461 35.3437 16.3506 34.791 17.1311C34.9025 17.1311 35.0164 17.1238 35.1279 17.1117C35.6418 16.3579 36.1048 15.5071 36.512 14.5642C36.5411 14.4987 36.512 14.4212 36.4441 14.3921Z" fill="#F4B527"/>
<path d="M38.8784 10.7071L40.7375 10.7071C40.7545 10.6198 40.769 10.5326 40.7836 10.4453L38.876 10.4453L38.876 10.7071L38.8784 10.7071Z" fill="#F4B527"/>
<path d="M38.1683 10.5469C37.6277 13.1138 36.7624 15.2977 35.6377 17.0332C35.7613 17.0066 35.8874 16.9751 36.011 16.9363C37.0775 15.2129 37.9016 13.0823 38.4252 10.6002L38.1683 10.5469Z" fill="#F4B527"/>
<path d="M38.6948 11.199C38.2052 13.3102 37.4925 15.1596 36.5933 16.7182C36.7338 16.6552 36.8744 16.5849 37.015 16.5073C37.8222 15.0263 38.4694 13.3029 38.9275 11.3614L40.6024 11.3614C40.6242 11.2741 40.6412 11.1869 40.6606 11.0996L38.719 11.0996L38.6948 11.2014L38.6948 11.199Z" fill="#F4B527"/>
<path d="M39.2106 11.8528C38.8179 13.4065 38.2992 14.8197 37.6763 16.0801C37.8387 15.9589 38.0011 15.8256 38.1562 15.685C38.6676 14.57 39.0991 13.3435 39.4409 12.0176L40.4177 12.0176C40.4444 11.9304 40.4735 11.8455 40.4977 11.7559L39.2373 11.7559L39.213 11.8552L39.2106 11.8528Z" fill="#F4B527"/>
<path d="M39.717 12.5071C39.4916 13.3312 39.2274 14.1142 38.9341 14.8559C39.145 14.5917 39.3461 14.3056 39.5304 13.9978C39.6782 13.5688 39.8164 13.1276 39.9424 12.6719L40.1824 12.6719C40.2163 12.5847 40.2503 12.4974 40.2818 12.4102L39.7412 12.4102L39.7146 12.5071L39.717 12.5071Z" fill="#F4B527"/>
<path d="M29.9853 12.5921C29.9223 12.5582 29.8423 12.58 29.8084 12.643C29.6872 12.8636 29.5635 13.0623 29.4375 13.2441C29.4811 13.3338 29.5248 13.4211 29.5708 13.5108C29.7308 13.2926 29.8859 13.0478 30.0386 12.7715C30.0726 12.7084 30.0507 12.6285 29.9877 12.5945L29.9853 12.5921Z" fill="#F4B527"/>
<path d="M31.2511 7.90326C31.0063 9.49334 30.6112 10.921 30.1119 12.0336C30.0828 12.099 30.1119 12.1766 30.1773 12.2081C30.2428 12.2396 30.3203 12.2081 30.3518 12.1427C30.8681 10.9937 31.2584 9.58303 31.5105 7.94447C31.9128 5.32665 34.138 3.42389 36.8018 3.42389L39.9578 3.42389C39.9165 3.33421 39.8729 3.24695 39.8293 3.16211L36.8018 3.16211C34.0095 3.16211 31.6729 5.15698 31.2511 7.90326Z" fill="#F4B527"/>
<path d="M34.0935 3.39833C34.1589 3.36682 34.1856 3.28683 34.1517 3.22138C34.1202 3.15594 34.0402 3.12927 33.9747 3.16321C32.1689 4.06248 30.9085 5.79557 30.5982 7.80256C30.2565 10.018 29.6796 11.5548 29.1221 12.5074C29.1609 12.6116 29.2021 12.7134 29.2433 12.8152C29.8686 11.8214 30.4964 10.1804 30.8576 7.84134C31.1533 5.91919 32.3628 4.25881 34.0911 3.3959L34.0935 3.39833Z" fill="#F4B527"/>
<path d="M34.5785 2.90486C34.5107 2.9291 34.4767 3.00666 34.501 3.07453C34.5252 3.1424 34.6028 3.17634 34.6706 3.1521C35.3493 2.90001 36.0644 2.77155 36.8013 2.77155L39.6154 2.77155C39.5645 2.68186 39.5112 2.5946 39.4579 2.50977L36.8013 2.50977C36.0353 2.50977 35.2863 2.64308 34.581 2.90729L34.5785 2.90486Z" fill="#F4B527"/>
<path d="M30.0918 7.02855C30.0748 7.09884 30.116 7.17156 30.1863 7.18852C30.1984 7.19095 30.2081 7.19337 30.2178 7.19337C30.276 7.19337 30.3293 7.15459 30.3438 7.09399C31.0953 4.16349 33.7494 2.1153 36.7987 2.1153L39.1911 2.1153C39.1281 2.02561 39.0626 1.93835 38.9948 1.85352L36.7963 1.85352C33.6258 1.85352 30.8674 3.9817 30.0869 7.02855L30.0918 7.02855Z" fill="#F4B527"/>
<path d="M30.0334 8.03383C29.9607 8.01929 29.8928 8.06777 29.8807 8.14048C29.602 9.73056 29.2166 10.8649 28.8457 11.643C28.8796 11.7666 28.916 11.8878 28.9524 12.009C29.362 11.2334 29.8177 10.0263 30.1401 8.18411C30.1522 8.11382 30.1037 8.04595 30.0334 8.0314L30.0334 8.03383Z" fill="#F4B527"/>
<path d="M32.5036 2.50954C32.443 2.55074 32.4284 2.63073 32.4696 2.69133C32.5109 2.75193 32.5933 2.76647 32.6514 2.72527C33.8682 1.89387 35.3032 1.45514 36.8012 1.45514L38.6724 1.45514C38.5924 1.36546 38.51 1.2782 38.4252 1.19336L36.8012 1.19336C35.2523 1.19336 33.7664 1.64905 32.5036 2.50711L32.5036 2.50954Z" fill="#F4B527"/>
<path d="M31.979 3.24329C32.0348 3.19482 32.0396 3.1124 31.9911 3.05908C31.9427 3.00333 31.8602 2.99848 31.8069 3.04696C30.4665 4.21285 29.5769 5.83202 29.3055 7.60632C29.114 8.8522 28.8595 9.80237 28.6001 10.515C28.6268 10.6822 28.6583 10.8447 28.6922 11.0046C29.0049 10.2387 29.3321 9.15277 29.5648 7.6451C29.829 5.9314 30.6871 4.37041 31.979 3.24572L31.979 3.24329Z" fill="#F4B527"/>
<path d="M30.0146 4.07311C29.9734 4.13371 29.9879 4.2137 30.0485 4.25491C30.0703 4.27187 30.097 4.27914 30.1236 4.27914C30.1648 4.27914 30.2061 4.25975 30.2327 4.22339C31.7113 2.08066 34.1667 0.800844 36.8015 0.800844L38.0013 0.800844C37.8923 0.708736 37.7832 0.621475 37.6717 0.539062L36.8015 0.539062C34.0795 0.539062 31.5416 1.86009 30.0146 4.07311Z" fill="#F4B527"/>
<path d="M29.8807 4.77705C29.9171 4.71403 29.8953 4.63404 29.8323 4.59768C29.7692 4.56132 29.6892 4.58314 29.6529 4.64616C29.1487 5.52603 28.8118 6.48832 28.6567 7.50636C28.5936 7.91115 28.5233 8.29413 28.4434 8.65772C28.4458 8.97282 28.4603 9.27823 28.4846 9.5788C28.6567 8.96797 28.7997 8.29171 28.9136 7.54757C29.0639 6.56346 29.3911 5.63026 29.8783 4.77947L29.8807 4.77705Z" fill="#F4B527"/>
<path d="M32.8915 1.06132C32.9569 1.02981 32.9812 0.949824 32.9497 0.884379C32.9181 0.818934 32.8382 0.794695 32.7727 0.826206C31.1463 1.64306 29.8349 2.93985 28.9842 4.51054C28.8315 4.98077 28.7078 5.4801 28.6157 6.00851C29.3332 3.87305 30.8603 2.07936 32.8915 1.06132Z" fill="#F4B527"/>
<path d="M35.5606 -0.427201C35.2722 -0.485374 34.9837 -0.512038 34.7001 -0.509614C34.6953 -0.509614 34.6929 -0.509614 34.688 -0.509614C34.6832 -0.509614 34.6807 -0.509614 34.6759 -0.509614C34.6371 -0.509614 34.5959 -0.509614 34.5571 -0.50719C33.1997 -0.182387 31.9442 0.430861 30.8704 1.2768C30.5165 1.64766 30.1868 2.07184 29.8911 2.54935C31.3455 0.93988 33.35 -0.133909 35.563 -0.429625L35.5606 -0.427201Z" fill="#F4B527"/>
<path d="M31.737 9.69507C31.6667 9.6781 31.5964 9.72173 31.5794 9.79203C31.1431 11.5881 30.5153 13.0061 29.7954 13.9199C29.8439 14.0023 29.8948 14.0823 29.9457 14.1623C30.7165 13.2243 31.3734 11.753 31.8363 9.85505C31.8533 9.78475 31.8097 9.71446 31.7394 9.69749L31.737 9.69507Z" fill="#F4B527"/>
<path d="M32.0262 8.99297C32.0868 8.68513 32.1426 8.3676 32.191 8.05249C32.351 7.01991 32.8382 6.0964 33.6042 5.37893C33.6575 5.33045 33.6599 5.24562 33.6114 5.19229C33.563 5.13896 33.4781 5.13654 33.4248 5.18502C32.6152 5.94128 32.0989 6.91811 31.9317 8.01129C31.8832 8.32397 31.8299 8.63665 31.7693 8.94207C31.7547 9.01236 31.8008 9.08265 31.8735 9.09719C31.8832 9.09719 31.8905 9.09719 31.8977 9.09719C31.9583 9.09719 32.0141 9.05357 32.0262 8.99055L32.0262 8.99297Z" fill="#F4B527"/>
<path d="M34.1103 4.64465C34.0497 4.68343 34.0328 4.76584 34.0716 4.82644C34.0958 4.86522 34.1394 4.88704 34.1806 4.88704C34.2049 4.88704 34.2291 4.87977 34.2509 4.86522C35.0096 4.37317 35.8895 4.11139 36.796 4.11139L40.2428 4.11139C40.2089 4.0217 40.1749 3.93687 40.1386 3.84961L36.796 3.84961C35.8386 3.84961 34.9078 4.12351 34.1079 4.64465L34.1103 4.64465Z" fill="#F4B527"/>
</g>
<path d="M39.7116 37.6913C33.8577 30.9711 34.1054 20.7694 40.4817 14.3426C46.8574 7.91487 57.057 7.58676 63.8234 13.3858C64.0817 13.6077 64.2201 13.8946 64.2346 14.2351C64.2482 14.5754 64.1326 14.8733 63.8931 15.115L57.7208 21.3366C57.3096 21.751 56.6716 21.8053 56.1963 21.4658C53.8083 19.7621 50.4764 19.9902 48.3425 22.1419C46.2092 24.2925 46.0075 27.626 47.7304 30.0004C48.0732 30.4728 48.0237 31.1112 47.6128 31.526L41.4406 37.7477C41.2011 37.9894 40.9038 38.1077 40.5637 38.0964C40.2231 38.0855 39.9344 37.9485 39.7114 37.6922L39.7116 37.6913Z" fill="#374E9D"/>
<path d="M40.0534 37.9632C40.2065 38.0437 40.3779 38.0882 40.565 38.0937C40.9051 38.105 41.2023 37.9867 41.4419 37.7451L47.6141 31.5234C48.0253 31.109 48.0748 30.4706 47.7317 29.9977C46.0088 27.6233 46.2105 24.2899 48.3438 22.1393C48.5239 21.9574 48.7124 21.7903 48.9084 21.6357C50.3039 20.5372 52.0669 20.135 53.7326 20.4299C53.7491 20.4328 53.7647 20.4355 53.7807 20.4388L53.8249 20.4473C53.854 20.4528 53.8826 20.4586 53.9121 20.4646L53.9603 20.4748C53.9888 20.4814 54.018 20.4883 54.047 20.4946L54.09 20.5046C54.1208 20.5126 54.1514 20.5193 54.1822 20.5273L54.2192 20.537C54.2494 20.5453 54.2794 20.5531 54.3095 20.5623L54.3513 20.5739C54.3803 20.5824 54.41 20.5911 54.4393 20.6001L54.4817 20.6135C54.5126 20.6228 54.5439 20.6327 54.5747 20.6429L54.6083 20.6541C54.6402 20.6649 54.6713 20.6756 54.7024 20.6863L54.7351 20.6982C54.7673 20.7096 54.7994 20.7218 54.8321 20.7337L54.8657 20.747C54.899 20.7599 54.9323 20.7728 54.965 20.786L54.9892 20.7962C55.0232 20.8101 55.0568 20.8235 55.0901 20.8386L55.117 20.8506C55.1504 20.8648 55.1836 20.8808 55.2173 20.8955L55.2373 20.9048C55.2718 20.9206 55.3057 20.9367 55.3395 20.9536L55.3651 20.9658C55.4005 20.9831 55.435 21.001 55.4694 21.0189L55.4864 21.0281C55.5209 21.046 55.556 21.065 55.5906 21.0842L55.6072 21.0929C55.6415 21.1117 55.6753 21.1308 55.7089 21.1507L55.7285 21.1617C55.7635 21.1815 55.7974 21.202 55.8312 21.2233L55.8483 21.2338C55.8829 21.2553 55.9175 21.2767 55.952 21.299L55.9671 21.3087C56.0012 21.3305 56.0348 21.3526 56.0687 21.3753L56.0825 21.3851C56.1159 21.4081 56.1502 21.4312 56.1834 21.4551L56.196 21.4642L56.197 21.4657C56.2572 21.5081 56.3195 21.544 56.3834 21.5745C51.7986 17.5941 44.8524 17.7985 40.5141 22.1727C36.2406 26.4799 36.0306 33.2851 39.8644 37.8394C39.9242 37.8879 39.9875 37.9297 40.0539 37.965L40.0534 37.9632Z" fill="url(#paint0_linear_4985_75775)"/>
<path d="M20.1372 50.5513C17.2352 52.2268 13.5245 51.2325 11.849 48.3305C10.1734 45.429 11.1676 41.7182 14.0696 40.0427C16.9717 38.3672 20.6824 39.3615 22.3578 42.2636C24.0328 45.1655 23.0385 48.8762 20.1372 50.5513Z" fill="#151A30"/>
<mask id="mask1_4985_75775" style="mask-type:alpha" maskUnits="userSpaceOnUse" x="11" y="39" width="13" height="13">
<path d="M11.2432 43.7524C12.099 40.5125 15.419 38.5799 18.6589 39.4356C21.8985 40.2909 23.8312 43.611 22.9755 46.8509C22.1197 50.0907 18.7997 52.0234 15.5598 51.1676C12.3204 50.3115 10.3877 46.9914 11.2432 43.7524Z" fill="#374E9D"/>
</mask>
<g mask="url(#mask1_4985_75775)">
<path d="M13.1925 50.6796C13.1319 50.6384 13.0519 50.6529 13.0107 50.7135C12.8774 50.9075 12.7392 51.0868 12.5962 51.2492C12.6495 51.3219 12.7028 51.3947 12.7562 51.465C12.9186 51.2832 13.0737 51.082 13.224 50.8614C13.2652 50.8008 13.2506 50.7208 13.19 50.6796H13.1925Z" fill="#F4B527"/>
<path d="M19.5122 41.3907C19.5122 41.4634 19.5704 41.5215 19.6431 41.5215H22.8814C22.8548 41.4319 22.8281 41.3446 22.8014 41.2598H19.6431C19.5704 41.2598 19.5122 41.3179 19.5122 41.3907Z" fill="#F4B527"/>
<path d="M13.3556 50.4263C13.375 50.4384 13.3992 50.4433 13.4211 50.4433C13.4671 50.4433 13.5107 50.419 13.535 50.3778C14.33 49.0156 14.9311 47.1104 15.2753 44.8731C15.5468 43.1037 17.0521 41.7002 18.8506 41.5378C18.9233 41.5306 18.9766 41.4675 18.9694 41.3948C18.9621 41.3221 18.8991 41.2688 18.8264 41.2761C16.9091 41.4506 15.3044 42.9461 15.0136 44.8343C14.6742 47.0401 14.0828 48.9113 13.3047 50.2469C13.2683 50.3099 13.2902 50.3899 13.3532 50.4263H13.3556Z" fill="#F4B527"/>
<path d="M15.091 48.0744C15.0231 48.0526 14.948 48.0914 14.9261 48.1593C14.4244 49.7251 13.7772 50.9444 13.0161 51.7854C13.0743 51.8533 13.1325 51.9163 13.1906 51.9818C13.9833 51.1116 14.6571 49.8536 15.1734 48.2417C15.1952 48.1738 15.1564 48.0987 15.0886 48.0769L15.091 48.0744Z" fill="#F4B527"/>
<path d="M15.6644 44.9333C15.5214 45.8641 15.3347 46.7415 15.1117 47.5438C15.0923 47.6141 15.1336 47.6869 15.2014 47.7062C15.2717 47.7256 15.3444 47.6844 15.3638 47.6141C15.5917 46.8021 15.7783 45.915 15.9237 44.9745C16.1686 43.3796 17.5793 42.1798 19.2057 42.1798H23.05C23.0306 42.0925 23.0112 42.0028 22.9894 41.918H19.2057C17.4508 41.918 15.9286 43.2148 15.6644 44.9357V44.9333Z" fill="#F4B527"/>
<path d="M17.646 43.3441C17.7042 43.3029 17.7188 43.2205 17.6751 43.1599C17.6339 43.1018 17.5515 43.0872 17.4909 43.1308C16.8583 43.5865 16.4268 44.2822 16.3105 45.0384C15.8087 48.3059 14.8052 50.7904 13.46 52.2617C13.523 52.3223 13.586 52.3805 13.649 52.4386C15.0331 50.9237 16.0584 48.3956 16.5674 45.0772C16.6741 44.3913 17.0643 43.7586 17.6412 43.3441H17.646Z" fill="#F4B527"/>
<path d="M18.0543 42.8059C17.9889 42.835 17.9574 42.9126 17.9865 42.978C18.0155 43.0459 18.0907 43.075 18.1586 43.0459C18.4906 42.9029 18.8445 42.8301 19.2057 42.8301H23.1785C23.1639 42.7429 23.1494 42.6556 23.1324 42.5684H19.2057C18.8082 42.5684 18.4228 42.6483 18.0568 42.8059H18.0543Z" fill="#F4B527"/>
<path d="M19.2057 43.4922H20.7909C20.8637 43.4922 20.9218 43.4341 20.9218 43.3614C20.9218 43.2886 20.8637 43.2305 20.7909 43.2305H19.2057C18.0931 43.2305 17.1284 44.0497 16.9612 45.1357C16.44 48.517 15.3832 51.1057 13.9507 52.6861C14.0186 52.7419 14.0888 52.7928 14.1591 52.8437C15.6208 51.2196 16.6945 48.5921 17.2205 45.1744C17.3684 44.2146 18.2216 43.4922 19.2057 43.4922Z" fill="#F4B527"/>
<path d="M21.6103 43.3614C21.6103 43.4341 21.6685 43.4922 21.7412 43.4922H23.2634C23.2537 43.405 23.244 43.3177 23.2319 43.2305H21.7388C21.6661 43.2305 21.6079 43.2886 21.6079 43.3614H21.6103Z" fill="#F4B527"/>
<path d="M16.1758 50.6773C16.1104 50.6458 16.0328 50.6724 16.0013 50.7379C15.5553 51.6565 15.0487 52.4322 14.4888 53.0672C14.5663 53.1157 14.6415 53.1618 14.719 53.2054C15.2814 52.5606 15.788 51.7753 16.234 50.8542C16.2655 50.7888 16.2388 50.7112 16.1734 50.6797L16.1758 50.6773Z" fill="#F4B527"/>
<path d="M17.6092 45.2364C17.3328 47.0325 16.9014 48.6419 16.3293 50.0139C16.3003 50.0817 16.3342 50.1569 16.3996 50.186C16.4675 50.2126 16.5426 50.1811 16.5717 50.1157C17.1535 48.7219 17.5898 47.0955 17.8685 45.2776C17.9679 44.6352 18.5424 44.1505 19.2065 44.1505H23.3174C23.3126 44.0632 23.3078 43.9735 23.3029 43.8887H19.2065C18.4139 43.8887 17.7279 44.468 17.6092 45.2388V45.2364Z" fill="#F4B527"/>
<path d="M18.3246 45.7447C18.2543 45.7301 18.184 45.781 18.1719 45.8513C17.6047 49.1115 16.5237 51.6784 15.0669 53.3824C15.1493 53.4212 15.2317 53.4575 15.3166 53.4939C16.7806 51.7535 17.8641 49.1648 18.4313 45.8974C18.4434 45.8271 18.3949 45.7568 18.3246 45.7447Z" fill="#F4B527"/>
<path d="M18.3507 45.0505C18.3168 45.1135 18.341 45.1935 18.4065 45.2274C18.4695 45.2614 18.5495 45.2371 18.5834 45.1717C18.7022 44.9463 18.947 44.8008 19.2064 44.8008H23.3367C23.3367 44.7136 23.3343 44.6263 23.3319 44.5391H19.2064C18.8501 44.5391 18.5156 44.7402 18.3532 45.0505H18.3507Z" fill="#F4B527"/>
<path d="M17.3543 51.2495C17.2889 51.218 17.2113 51.2447 17.1798 51.3101C16.7484 52.1973 16.2539 52.9754 15.7085 53.6419C15.8006 53.671 15.8927 53.6977 15.9848 53.7219C16.5132 53.0602 16.9932 52.2942 17.4149 51.4265C17.4464 51.361 17.4198 51.2835 17.3543 51.252V51.2495Z" fill="#F4B527"/>
<path d="M23.3371 45.1953H19.2068C19.0589 45.1953 18.928 45.2995 18.9062 45.4329C18.6154 47.3308 18.1548 49.0396 17.5392 50.5134C17.5101 50.5812 17.5416 50.6564 17.6094 50.6855C17.6749 50.7145 17.7525 50.683 17.7815 50.6152C18.4045 49.1196 18.8723 47.3914 19.1656 45.4789C19.168 45.4741 19.1826 45.4571 19.2068 45.4571H23.3323C23.3323 45.3795 23.3371 45.3044 23.3371 45.2244C23.3371 45.2147 23.3371 45.205 23.3371 45.1953Z" fill="#F4B527"/>
<path d="M19.601 46.0703C19.5307 46.0582 19.4604 46.1042 19.4483 46.1769C18.8811 49.3668 17.8316 51.9555 16.416 53.8074C16.5154 53.8219 16.6172 53.8341 16.7166 53.8437C18.1127 51.9676 19.1453 49.3862 19.7077 46.223C19.7198 46.1503 19.6737 46.0824 19.601 46.0703Z" fill="#F4B527"/>
<path d="M20.0688 45.9805C20.0688 46.0532 20.127 46.1114 20.1997 46.1114H23.3048C23.3096 46.0241 23.3145 45.9369 23.3193 45.8496H20.1997C20.127 45.8496 20.0688 45.9078 20.0688 45.9805Z" fill="#F4B527"/>
<path d="M20.0328 46.6169C19.7613 48.0494 19.3856 49.385 18.9202 50.5824C18.8936 50.6503 18.9275 50.7254 18.9954 50.7521C19.0633 50.7787 19.1384 50.7448 19.1651 50.6769C19.6256 49.4916 19.9965 48.1779 20.2704 46.7696H23.2421C23.2518 46.6823 23.2615 46.5951 23.2711 46.5078H20.1637C20.1007 46.5078 20.0474 46.5514 20.0352 46.6145L20.0328 46.6169Z" fill="#F4B527"/>
<path d="M18.8494 51.1128C18.7815 51.0837 18.7064 51.1128 18.6773 51.1807C18.2483 52.1817 17.7489 53.0713 17.1963 53.8518C17.3078 53.8518 17.4217 53.8445 17.5332 53.8324C18.0471 53.0786 18.51 52.2278 18.9173 51.2849C18.9463 51.2194 18.9173 51.1419 18.8494 51.1128Z" fill="#F4B527"/>
<path d="M21.2837 47.4278H23.1428C23.1598 47.3405 23.1743 47.2533 23.1889 47.166H21.2812V47.4278H21.2837Z" fill="#F4B527"/>
<path d="M20.5735 47.2676C20.033 49.8345 19.1677 52.0184 18.043 53.7539C18.1666 53.7273 18.2926 53.6958 18.4163 53.657C19.4828 51.9336 20.3069 49.803 20.8305 47.3209L20.5735 47.2676Z" fill="#F4B527"/>
<path d="M21.1001 47.9197C20.6104 50.0309 19.8978 51.8803 18.9985 53.4389C19.1391 53.3759 19.2797 53.3056 19.4203 53.228C20.2275 51.747 20.8746 50.0236 21.3328 48.0821H23.0077C23.0295 47.9948 23.0465 47.9076 23.0658 47.8203H21.1243L21.1001 47.9221V47.9197Z" fill="#F4B527"/>
<path d="M21.6159 48.5735C21.2232 50.1272 20.7045 51.5404 20.0815 52.8008C20.2439 52.6796 20.4063 52.5463 20.5615 52.4057C21.0729 51.2907 21.5044 50.0642 21.8461 48.7383H22.823C22.8496 48.6511 22.8787 48.5662 22.903 48.4766H21.6425L21.6183 48.5759L21.6159 48.5735Z" fill="#F4B527"/>
<path d="M22.1218 49.2278C21.8964 50.0519 21.6322 50.8349 21.3389 51.5766C21.5497 51.3124 21.7509 51.0264 21.9351 50.7185C22.083 50.2895 22.2212 49.8483 22.3472 49.3926H22.5872C22.6211 49.3054 22.655 49.2181 22.6866 49.1309H22.146L22.1194 49.2278H22.1218Z" fill="#F4B527"/>
<path d="M12.3906 49.3128C12.3276 49.2789 12.2476 49.3007 12.2136 49.3637C12.0924 49.5843 11.9688 49.783 11.8428 49.9648C11.8864 50.0545 11.93 50.1418 11.9761 50.2315C12.1361 50.0133 12.2912 49.7685 12.4439 49.4922C12.4778 49.4292 12.456 49.3492 12.393 49.3152L12.3906 49.3128Z" fill="#F4B527"/>
<path d="M13.6564 44.624C13.4116 46.214 13.0165 47.6417 12.5171 48.7543C12.488 48.8197 12.5171 48.8973 12.5826 48.9288C12.648 48.9603 12.7256 48.9288 12.7571 48.8634C13.2734 47.7144 13.6636 46.3037 13.9157 44.6652C14.3181 42.0474 16.5432 40.1446 19.2071 40.1446H22.363C22.3218 40.0549 22.2782 39.9676 22.2346 39.8828H19.2071C16.4148 39.8828 14.0781 41.8777 13.6564 44.624Z" fill="#F4B527"/>
<path d="M16.4988 40.119C16.5642 40.0875 16.5909 40.0075 16.5569 39.9421C16.5254 39.8766 16.4454 39.85 16.38 39.8839C14.5742 40.7832 13.3138 42.5163 13.0035 44.5233C12.6617 46.7387 12.0848 48.2755 11.5273 49.2281C11.5661 49.3323 11.6073 49.4341 11.6485 49.5359C12.2739 48.5421 12.9017 46.9011 13.2629 44.562C13.5586 42.6399 14.7681 40.9795 16.4963 40.1166L16.4988 40.119Z" fill="#F4B527"/>
<path d="M16.9838 39.6256C16.9159 39.6498 16.882 39.7274 16.9062 39.7952C16.9305 39.8631 17.008 39.897 17.0759 39.8728C17.7546 39.6207 18.4697 39.4922 19.2065 39.4922H22.0207C21.9698 39.4026 21.9165 39.3153 21.8631 39.2305H19.2065C18.4406 39.2305 17.6916 39.3638 16.9862 39.628L16.9838 39.6256Z" fill="#F4B527"/>
<path d="M12.497 43.7492C12.4801 43.8195 12.5213 43.8923 12.5916 43.9092C12.6037 43.9117 12.6134 43.9141 12.6231 43.9141C12.6813 43.9141 12.7346 43.8753 12.7491 43.8147C13.5005 40.8842 16.1547 38.836 19.204 38.836H21.5964C21.5333 38.7463 21.4679 38.6591 21.4 38.5742H19.2015C16.0311 38.5742 13.2727 40.7024 12.4922 43.7492H12.497Z" fill="#F4B527"/>
<path d="M12.4387 44.7545C12.366 44.74 12.2981 44.7885 12.286 44.8612C12.0072 46.4513 11.6218 47.5857 11.251 48.3637C11.2849 48.4873 11.3213 48.6085 11.3576 48.7297C11.7673 47.9541 12.223 46.747 12.5453 44.9048C12.5575 44.8345 12.509 44.7667 12.4387 44.7521V44.7545Z" fill="#F4B527"/>
<path d="M14.9089 39.2302C14.8483 39.2714 14.8337 39.3514 14.8749 39.412C14.9161 39.4726 14.9985 39.4872 15.0567 39.446C16.2735 38.6146 17.7085 38.1758 19.2064 38.1758H21.0777C20.9977 38.0862 20.9153 37.9989 20.8304 37.9141H19.2064C17.6576 37.9141 16.1717 38.3698 14.9089 39.2278V39.2302Z" fill="#F4B527"/>
<path d="M14.3843 39.964C14.44 39.9155 14.4449 39.8331 14.3964 39.7798C14.3479 39.724 14.2655 39.7192 14.2122 39.7677C12.8718 40.9336 11.9822 42.5527 11.7107 44.327C11.5192 45.5729 11.2647 46.5231 11.0054 47.2357C11.032 47.403 11.0635 47.5654 11.0975 47.7253C11.4102 46.9594 11.7374 45.8735 11.9701 44.3658C12.2343 42.6521 13.0924 41.0911 14.3843 39.9664V39.964Z" fill="#F4B527"/>
<path d="M12.4198 40.7938C12.3786 40.8544 12.3932 40.9344 12.4538 40.9756C12.4756 40.9926 12.5023 40.9998 12.5289 40.9998C12.5701 40.9998 12.6113 40.9805 12.638 40.9441C14.1166 38.8014 16.572 37.5215 19.2068 37.5215H20.4066C20.2975 37.4294 20.1884 37.3422 20.0769 37.2598H19.2068C16.4847 37.2598 13.9469 38.5808 12.4198 40.7938Z" fill="#F4B527"/>
<path d="M12.286 41.4978C12.3224 41.4347 12.3005 41.3547 12.2375 41.3184C12.1745 41.282 12.0945 41.3038 12.0582 41.3669C11.554 42.2467 11.2171 43.209 11.0619 44.2271C10.9989 44.6319 10.9286 45.0148 10.8486 45.3784C10.8511 45.6935 10.8656 45.9989 10.8898 46.2995C11.0619 45.6887 11.2049 45.0124 11.3189 44.2683C11.4691 43.2842 11.7964 42.351 12.2836 41.5002L12.286 41.4978Z" fill="#F4B527"/>
<path d="M15.2968 37.782C15.3622 37.7505 15.3864 37.6705 15.3549 37.6051C15.3234 37.5396 15.2434 37.5154 15.178 37.5469C13.5516 38.3638 12.2402 39.6606 11.3894 41.2312C11.2367 41.7015 11.1131 42.2008 11.021 42.7292C11.7385 40.5938 13.2655 38.8001 15.2968 37.782Z" fill="#F4B527"/>
<path d="M17.9659 36.2935C17.6774 36.2353 17.389 36.2087 17.1054 36.2111C17.1006 36.2111 17.0981 36.2111 17.0933 36.2111C17.0884 36.2111 17.086 36.2111 17.0812 36.2111C17.0424 36.2111 17.0012 36.2111 16.9624 36.2135C15.605 36.5383 14.3494 37.1516 13.2756 37.9975C12.9218 38.3684 12.5921 38.7925 12.2964 39.2701C13.7507 37.6606 15.7553 36.5868 17.9683 36.2911L17.9659 36.2935Z" fill="#F4B527"/>
<path d="M14.1422 46.4158C14.0719 46.3988 14.0016 46.4424 13.9847 46.5127C13.5484 48.3088 12.9206 49.7268 12.2007 50.6406C12.2492 50.723 12.3001 50.803 12.351 50.883C13.1218 49.945 13.7786 48.4737 14.2416 46.5757C14.2586 46.5055 14.2149 46.4352 14.1447 46.4182L14.1422 46.4158Z" fill="#F4B527"/>
<path d="M14.4315 45.7137C14.4921 45.4058 14.5478 45.0883 14.5963 44.7732C14.7563 43.7406 15.2435 42.8171 16.0094 42.0996C16.0628 42.0512 16.0652 41.9663 16.0167 41.913C15.9682 41.8597 15.8834 41.8572 15.8301 41.9057C15.0205 42.662 14.5042 43.6388 14.337 44.732C14.2885 45.0447 14.2352 45.3574 14.1746 45.6628C14.16 45.7331 14.2061 45.8034 14.2788 45.8179C14.2885 45.8179 14.2957 45.8179 14.303 45.8179C14.3636 45.8179 14.4194 45.7743 14.4315 45.7112V45.7137Z" fill="#F4B527"/>
<path d="M16.5156 41.3654C16.455 41.4041 16.438 41.4865 16.4768 41.5471C16.5011 41.5859 16.5447 41.6077 16.5859 41.6077C16.6101 41.6077 16.6344 41.6005 16.6562 41.5859C17.4149 41.0939 18.2948 40.8321 19.2013 40.8321H22.6481C22.6141 40.7424 22.5802 40.6576 22.5439 40.5703H19.2013C18.2439 40.5703 17.3131 40.8442 16.5132 41.3654H16.5156Z" fill="#F4B527"/>
</g>
<path d="M34.2399 21.2165C33.5956 30.1055 26.1817 37.1177 17.1285 37.1211C8.07503 37.1257 0.655757 30.119 0.00342039 21.2315C-0.0211577 20.8918 0.0849213 20.5915 0.316348 20.3413C0.548247 20.0918 0.84112 19.964 1.18137 19.9637L9.94528 19.96C10.529 19.9599 11.0171 20.3743 11.1111 20.9508C11.5846 23.8458 14.094 26.0495 17.1245 26.0477C20.1537 26.0462 22.6613 23.8407 23.1323 20.9451C23.226 20.369 23.7139 19.9543 24.2978 19.9536L33.0617 19.9499C33.4019 19.9496 33.6953 20.0772 33.927 20.3264C34.1592 20.5758 34.2654 20.8773 34.2406 21.216L34.2399 21.2165Z" fill="#374E9D"/>
<path d="M34.1934 20.7832C34.1427 20.6179 34.0535 20.4649 33.9256 20.3282C33.694 20.0789 33.4006 19.9514 33.0604 19.9516L24.2965 19.9553C23.7127 19.9555 23.2248 20.3702 23.131 20.9469C22.66 23.8424 20.1524 26.048 17.1232 26.0494C16.8672 26.0498 16.6158 26.0338 16.368 26.0036C14.6052 25.7873 13.0777 24.8196 12.1133 23.4298C12.1037 23.4161 12.0947 23.4031 12.0857 23.3894L12.0606 23.352C12.044 23.3275 12.028 23.3031 12.0115 23.278L11.9847 23.2366C11.9694 23.2117 11.9536 23.1861 11.9377 23.1612L11.9145 23.1235C11.8985 23.0961 11.8817 23.0697 11.8656 23.0422L11.8465 23.0091C11.8311 22.9817 11.8155 22.955 11.8008 22.9271L11.7795 22.8893C11.7652 22.8628 11.7504 22.8355 11.7361 22.8084L11.7158 22.7689C11.7006 22.7404 11.6856 22.7112 11.6711 22.6822L11.6554 22.6505C11.6406 22.6201 11.6263 22.5905 11.6119 22.5609L11.5974 22.5294C11.5827 22.4985 11.5688 22.4671 11.5542 22.4356L11.54 22.4023C11.5257 22.3696 11.5114 22.3369 11.4977 22.3043L11.4878 22.28C11.4738 22.2461 11.4596 22.2128 11.4469 22.1785L11.4364 22.151C11.423 22.1172 11.4109 22.0825 11.3976 22.0481L11.3901 22.0274C11.377 21.9918 11.3645 21.9564 11.3527 21.9205L11.3434 21.8938C11.3306 21.8565 11.3191 21.8194 11.3076 21.7823L11.3021 21.7638C11.2905 21.7267 11.2792 21.6884 11.2685 21.6503L11.2629 21.6324C11.2521 21.5949 11.2419 21.5574 11.2324 21.5195L11.2263 21.4978C11.2158 21.4591 11.2064 21.4206 11.1977 21.3816L11.1931 21.362C11.1839 21.3224 11.1748 21.2827 11.1663 21.2425L11.1625 21.225C11.154 21.1854 11.146 21.146 11.1382 21.1059L11.1354 21.0893C11.1282 21.0493 11.1205 21.0087 11.114 20.9683L11.1116 20.953L11.1119 20.9512C11.0997 20.8786 11.0812 20.8091 11.0578 20.7423C11.4636 26.8003 16.5029 31.5855 22.6636 31.582C28.7311 31.5798 33.7081 26.934 34.2388 21.0045C34.2311 20.928 34.2161 20.8536 34.1944 20.7816L34.1934 20.7832Z" fill="url(#paint1_linear_4985_75775)"/>
<path d="M56.3926 53.2896C53.4905 54.9651 49.7798 53.9708 48.1044 51.0688C46.4287 48.1673 47.423 44.4565 50.325 42.781C53.227 41.1055 56.9377 42.0998 58.6132 45.0019C60.2881 47.9038 59.2939 51.6145 56.3926 53.2896Z" fill="#151A30"/>
<mask id="mask2_4985_75775" style="mask-type:alpha" maskUnits="userSpaceOnUse" x="47" y="41" width="13" height="14">
<path d="M47.4996 46.4906C48.3553 43.2508 51.6754 41.3181 54.9153 42.1739C58.1549 43.0292 60.0875 46.3493 59.2318 49.5891C58.3761 52.829 55.056 54.7616 51.8161 53.9059C48.5767 53.0498 46.6441 49.7297 47.4996 46.4906Z" fill="#374E9D"/>
</mask>
<g mask="url(#mask2_4985_75775)">
<path d="M49.4498 53.4179C49.3892 53.3767 49.3092 53.3912 49.268 53.4518C49.1347 53.6457 48.9965 53.8251 48.8535 53.9875C48.9068 54.0602 48.9602 54.1329 49.0135 54.2032C49.1759 54.0214 49.331 53.8203 49.4813 53.5997C49.5225 53.5391 49.508 53.4591 49.4474 53.4179H49.4498Z" fill="#F4B527"/>
<path d="M55.7681 44.1289C55.7681 44.2017 55.8262 44.2598 55.899 44.2598H59.1373C59.1106 44.1701 59.084 44.0829 59.0573 43.998H55.899C55.8262 43.998 55.7681 44.0562 55.7681 44.1289Z" fill="#F4B527"/>
<path d="M49.611 53.1665C49.6304 53.1786 49.6546 53.1835 49.6764 53.1835C49.7225 53.1835 49.7661 53.1592 49.7904 53.118C50.5854 51.7558 51.1865 49.8506 51.5307 47.6134C51.8022 45.8439 53.3074 44.4405 55.106 44.2781C55.1787 44.2708 55.232 44.2078 55.2247 44.1351C55.2175 44.0623 55.1544 44.009 55.0817 44.0163C53.1644 44.1908 51.5598 45.6864 51.2689 47.5746C50.9296 49.7803 50.3382 51.6516 49.5601 52.9872C49.5237 53.0502 49.5455 53.1302 49.6086 53.1665H49.611Z" fill="#F4B527"/>
<path d="M51.3468 50.8127C51.279 50.7909 51.2038 50.8297 51.182 50.8976C50.6803 52.4634 50.0331 53.6826 49.272 54.5237C49.3301 54.5916 49.3883 54.6546 49.4465 54.7201C50.2391 53.8499 50.913 52.5919 51.4292 50.98C51.4511 50.9121 51.4123 50.837 51.3444 50.8152L51.3468 50.8127Z" fill="#F4B527"/>
<path d="M51.9212 47.6716C51.7782 48.6024 51.5916 49.4798 51.3686 50.2821C51.3492 50.3524 51.3904 50.4251 51.4583 50.4445C51.5285 50.4639 51.6013 50.4227 51.6207 50.3524C51.8485 49.5404 52.0351 48.6533 52.1806 47.7128C52.4254 46.1179 53.8361 44.918 55.4625 44.918H59.3069C59.2875 44.8308 59.2681 44.7411 59.2463 44.6562H55.4625C53.7076 44.6562 52.1854 45.953 51.9212 47.674V47.6716Z" fill="#F4B527"/>
<path d="M53.9014 46.0824C53.9596 46.0412 53.9741 45.9588 53.9305 45.8982C53.8893 45.84 53.8069 45.8255 53.7463 45.8691C53.1136 46.3248 52.6822 47.0205 52.5658 47.7767C52.0641 51.0442 51.0606 53.5287 49.7153 55C49.7784 55.0606 49.8414 55.1187 49.9044 55.1769C51.2884 53.662 52.3138 51.1338 52.8228 47.8155C52.9294 47.1295 53.3197 46.4969 53.8966 46.0824H53.9014Z" fill="#F4B527"/>
<path d="M54.3112 45.55C54.2457 45.5791 54.2142 45.6567 54.2433 45.7221C54.2724 45.79 54.3475 45.8191 54.4154 45.79C54.7475 45.647 55.1014 45.5743 55.4625 45.5743H59.4353C59.4207 45.487 59.4062 45.3998 59.3892 45.3125H55.4625C55.065 45.3125 54.6796 45.3925 54.3136 45.55H54.3112Z" fill="#F4B527"/>
<path d="M55.463 46.2305H57.0483C57.121 46.2305 57.1792 46.1724 57.1792 46.0996C57.1792 46.0269 57.121 45.9688 57.0483 45.9688H55.463C54.3505 45.9688 53.3857 46.788 53.2185 47.8739C52.6974 51.2553 51.6405 53.844 50.208 55.4244C50.2759 55.4801 50.3462 55.531 50.4165 55.5819C51.8781 53.9579 52.9519 51.3304 53.4779 47.9127C53.6257 46.9529 54.4789 46.2305 55.463 46.2305Z" fill="#F4B527"/>
<path d="M57.8677 46.0996C57.8677 46.1724 57.9258 46.2305 57.9985 46.2305H59.5208C59.5111 46.1433 59.5014 46.056 59.4892 45.9688H57.9961C57.9234 45.9688 57.8652 46.0269 57.8652 46.0996H57.8677Z" fill="#F4B527"/>
<path d="M52.4326 53.4156C52.3672 53.384 52.2896 53.4107 52.2581 53.4762C51.8121 54.3948 51.3055 55.1705 50.7456 55.8055C50.8232 55.854 50.8983 55.9001 50.9759 55.9437C51.5382 55.2989 52.0448 54.5136 52.4908 53.5925C52.5223 53.5271 52.4957 53.4495 52.4302 53.418L52.4326 53.4156Z" fill="#F4B527"/>
<path d="M53.866 47.9746C53.5897 49.7708 53.1582 51.3802 52.5862 52.7522C52.5571 52.82 52.591 52.8952 52.6565 52.9243C52.7243 52.9509 52.7995 52.9194 52.8286 52.854C53.4103 51.4602 53.8466 49.8338 54.1254 48.0159C54.2247 47.3735 54.7992 46.8887 55.4633 46.8887H59.5743C59.5694 46.8015 59.5646 46.7118 59.5597 46.627H55.4633C54.6707 46.627 53.9848 47.2063 53.866 47.9771V47.9746Z" fill="#F4B527"/>
<path d="M54.58 48.483C54.5097 48.4684 54.4394 48.5193 54.4273 48.5896C53.8601 51.8498 52.779 54.4167 51.3223 56.1207C51.4047 56.1595 51.4871 56.1958 51.5719 56.2322C53.036 54.4918 54.1194 51.9031 54.6866 48.6357C54.6988 48.5654 54.6503 48.4951 54.58 48.483Z" fill="#F4B527"/>
<path d="M54.6076 47.7888C54.5736 47.8518 54.5979 47.9318 54.6633 47.9657C54.7264 47.9997 54.8063 47.9754 54.8403 47.91C54.959 47.6846 55.2039 47.5391 55.4632 47.5391H59.5935C59.5935 47.4519 59.5911 47.3646 59.5887 47.2773H55.4632C55.1069 47.2773 54.7724 47.4785 54.61 47.7888H54.6076Z" fill="#F4B527"/>
<path d="M53.6117 53.9878C53.5462 53.9563 53.4686 53.983 53.4371 54.0484C53.0057 54.9356 52.5112 55.7136 51.9658 56.3802C52.0579 56.4093 52.15 56.436 52.2421 56.4602C52.7706 55.7985 53.2505 55.0325 53.6722 54.1648C53.7038 54.0993 53.6771 54.0218 53.6117 53.9902V53.9878Z" fill="#F4B527"/>
<path d="M59.5925 47.9336H55.4622C55.3143 47.9336 55.1834 48.0378 55.1616 48.1711C54.8707 50.0691 54.4102 51.7779 53.7945 53.2516C53.7654 53.3195 53.797 53.3946 53.8648 53.4237C53.9303 53.4528 54.0078 53.4213 54.0369 53.3534C54.6599 51.8579 55.1277 50.1296 55.421 48.2172C55.4234 48.2123 55.4379 48.1954 55.4622 48.1954H59.5877C59.5877 48.1178 59.5925 48.0427 59.5925 47.9627C59.5925 47.953 59.5925 47.9433 59.5925 47.9336Z" fill="#F4B527"/>
<path d="M55.8583 48.8086C55.7881 48.7965 55.7178 48.8425 55.7056 48.9152C55.1384 52.1051 54.0889 54.6938 52.6733 56.5457C52.7727 56.5602 52.8745 56.5723 52.9739 56.582C54.3701 54.7059 55.4027 52.1245 55.965 48.9613C55.9771 48.8886 55.9311 48.8207 55.8583 48.8086Z" fill="#F4B527"/>
<path d="M56.3262 48.7246C56.3262 48.7974 56.3843 48.8555 56.4571 48.8555H59.5621C59.5669 48.7683 59.5718 48.681 59.5766 48.5938H56.4571C56.3843 48.5938 56.3262 48.6519 56.3262 48.7246Z" fill="#F4B527"/>
<path d="M56.2896 49.3552C56.0182 50.7877 55.6425 52.1233 55.1771 53.3207C55.1504 53.3885 55.1843 53.4637 55.2522 53.4903C55.3201 53.517 55.3952 53.4831 55.4219 53.4152C55.8824 52.2299 56.2533 50.9162 56.5272 49.5079H59.4989C59.5086 49.4206 59.5183 49.3334 59.528 49.2461H56.4205C56.3575 49.2461 56.3042 49.2897 56.2921 49.3527L56.2896 49.3552Z" fill="#F4B527"/>
<path d="M55.1067 53.8511C55.0388 53.822 54.9637 53.8511 54.9346 53.9189C54.5056 54.92 54.0063 55.8096 53.4536 56.5901C53.5651 56.5901 53.679 56.5828 53.7905 56.5707C54.3044 55.8169 54.7674 54.9661 55.1746 54.0232C55.2037 53.9577 55.1746 53.8802 55.1067 53.8511Z" fill="#F4B527"/>
<path d="M57.5405 50.1661H59.3996C59.4166 50.0788 59.4312 49.9916 59.4457 49.9043H57.5381V50.1661H57.5405Z" fill="#F4B527"/>
<path d="M56.8294 50.0059C56.2889 52.5728 55.4235 54.7567 54.2988 56.4922C54.4224 56.4656 54.5485 56.434 54.6721 56.3953C55.7386 54.6719 56.5628 52.5413 57.0863 50.0592L56.8294 50.0059Z" fill="#F4B527"/>
<path d="M57.3554 50.658C56.8658 52.7692 56.1532 54.6186 55.2539 56.1772C55.3945 56.1142 55.5351 56.0439 55.6757 55.9663C56.4828 54.4853 57.13 52.7619 57.5881 50.8204H59.263C59.2849 50.7331 59.3018 50.6459 59.3212 50.5586H57.3797L57.3554 50.6604V50.658Z" fill="#F4B527"/>
<path d="M57.8727 51.3118C57.48 52.8655 56.9613 54.2787 56.3384 55.5391C56.5008 55.4179 56.6632 55.2846 56.8183 55.144C57.3298 54.029 57.7612 52.8025 58.103 51.4766H59.0798C59.1065 51.3894 59.1356 51.3045 59.1598 51.2148H57.8994L57.8751 51.3142L57.8727 51.3118Z" fill="#F4B527"/>
<path d="M58.3791 51.968C58.1537 52.7922 57.8895 53.5751 57.5962 54.3168C57.8071 54.0526 58.0083 53.7666 58.1925 53.4588C58.3403 53.0297 58.4785 52.5886 58.6045 52.1329H58.8445C58.8784 52.0456 58.9124 51.9584 58.9439 51.8711H58.4034L58.3767 51.968H58.3791Z" fill="#F4B527"/>
<path d="M48.6474 52.0511C48.5844 52.0171 48.5044 52.039 48.4705 52.102C48.3493 52.3226 48.2257 52.5213 48.0996 52.7031C48.1432 52.7928 48.1869 52.8801 48.2329 52.9697C48.3929 52.7516 48.548 52.5068 48.7007 52.2305C48.7347 52.1674 48.7129 52.0874 48.6498 52.0535L48.6474 52.0511Z" fill="#F4B527"/>
<path d="M49.9117 47.3622C49.6669 48.9523 49.2718 50.38 48.7725 51.4926C48.7434 51.558 48.7725 51.6356 48.838 51.6671C48.9034 51.6986 48.981 51.6671 49.0125 51.6017C49.5288 50.4527 49.919 49.042 50.1711 47.4035C50.5735 44.7856 52.7986 42.8829 55.4625 42.8829H58.6184C58.5772 42.7932 58.5336 42.7059 58.4899 42.6211H55.4625C52.6701 42.6211 50.3335 44.616 49.9117 47.3622Z" fill="#F4B527"/>
<path d="M52.7556 42.8573C52.8211 42.8258 52.8477 42.7458 52.8138 42.6804C52.7823 42.6149 52.7023 42.5883 52.6368 42.6222C50.831 43.5215 49.5706 45.2546 49.2603 47.2615C48.9186 49.477 48.3417 51.0137 47.7842 51.9663C47.823 52.0706 47.8642 52.1724 47.9054 52.2742C48.5307 51.2804 49.1585 49.6394 49.5197 47.3003C49.8154 45.3782 51.0249 43.7178 52.7532 42.8549L52.7556 42.8573Z" fill="#F4B527"/>
<path d="M53.2406 42.3638C53.1728 42.3881 53.1388 42.4656 53.1631 42.5335C53.1873 42.6014 53.2649 42.6353 53.3328 42.6111C54.0114 42.359 54.7265 42.2305 55.4634 42.2305H58.2775C58.2266 42.1408 58.1733 42.0536 58.12 41.9688H55.4634C54.6974 41.9688 53.9484 42.1021 53.2431 42.3663L53.2406 42.3638Z" fill="#F4B527"/>
<path d="M48.7539 46.4875C48.7369 46.5578 48.7781 46.6305 48.8484 46.6475C48.8605 46.6499 48.8702 46.6524 48.8799 46.6524C48.9381 46.6524 48.9914 46.6136 49.006 46.553C49.7574 43.6225 52.4115 41.5743 55.4608 41.5743H57.8532C57.7902 41.4846 57.7247 41.3973 57.6569 41.3125H55.4584C52.2879 41.3125 49.5295 43.4407 48.749 46.4875H48.7539Z" fill="#F4B527"/>
<path d="M48.6955 47.4928C48.6228 47.4783 48.5549 47.5267 48.5428 47.5995C48.2641 49.1895 47.8787 50.3239 47.5078 51.102C47.5417 51.2256 47.5781 51.3468 47.6145 51.468C48.0241 50.6924 48.4798 49.4853 48.8022 47.6431C48.8143 47.5728 48.7658 47.5049 48.6955 47.4904V47.4928Z" fill="#F4B527"/>
<path d="M51.1657 41.9685C51.1051 42.0097 51.0905 42.0897 51.1318 42.1503C51.173 42.2109 51.2554 42.2255 51.3135 42.1842C52.5303 41.3529 53.9653 40.9141 55.4633 40.9141H57.3345C57.2545 40.8244 57.1721 40.7372 57.0873 40.6523H55.4633C53.9144 40.6523 52.4285 41.108 51.1657 41.9661V41.9685Z" fill="#F4B527"/>
<path d="M50.6416 42.7023C50.6974 42.6538 50.7022 42.5714 50.6537 42.5181C50.6053 42.4623 50.5228 42.4575 50.4695 42.5059C49.1291 43.6718 48.2395 45.291 47.9681 47.0653C47.7766 48.3112 47.5221 49.2614 47.2627 49.974C47.2894 50.1412 47.3209 50.3036 47.3548 50.4636C47.6675 49.6977 47.9947 48.6118 48.2274 47.1041C48.4916 45.3904 49.3497 43.8294 50.6416 42.7047V42.7023Z" fill="#F4B527"/>
<path d="M48.6752 43.5321C48.634 43.5927 48.6485 43.6727 48.7091 43.7139C48.731 43.7309 48.7576 43.7381 48.7843 43.7381C48.8255 43.7381 48.8667 43.7187 48.8934 43.6824C50.3719 41.5396 52.8274 40.2598 55.4621 40.2598H56.662C56.5529 40.1677 56.4438 40.0805 56.3323 39.998H55.4621C52.7401 39.998 50.2023 41.3191 48.6752 43.5321Z" fill="#F4B527"/>
<path d="M48.5428 44.236C48.5792 44.173 48.5574 44.093 48.4944 44.0567C48.4313 44.0203 48.3514 44.0421 48.315 44.1051C47.8108 44.985 47.4739 45.9473 47.3188 46.9653C47.2557 47.3701 47.1855 47.7531 47.1055 48.1167C47.1079 48.4318 47.1224 48.7372 47.1467 49.0378C47.3188 48.427 47.4618 47.7507 47.5757 47.0066C47.726 46.0224 48.0532 45.0892 48.5404 44.2385L48.5428 44.236Z" fill="#F4B527"/>
<path d="M51.5536 40.5203C51.619 40.4888 51.6433 40.4088 51.6118 40.3434C51.5803 40.2779 51.5003 40.2537 51.4348 40.2852C49.8084 41.102 48.4971 42.3988 47.6463 43.9695C47.4936 44.4398 47.3699 44.9391 47.2778 45.4675C47.9953 43.332 49.5224 41.5383 51.5536 40.5203Z" fill="#F4B527"/>
<path d="M54.2213 39.0318C53.9328 38.9736 53.6444 38.9469 53.3608 38.9494C53.3559 38.9494 53.3535 38.9494 53.3487 38.9494C53.3438 38.9494 53.3414 38.9494 53.3365 38.9494C53.2978 38.9494 53.2566 38.9494 53.2178 38.9518C51.8604 39.2766 50.6048 39.8898 49.531 40.7358C49.1771 41.1066 48.8475 41.5308 48.5518 42.0083C50.0061 40.3989 52.0107 39.3251 54.2237 39.0294L54.2213 39.0318Z" fill="#F4B527"/>
<path d="M50.3991 49.1541C50.3288 49.1371 50.2585 49.1807 50.2415 49.251C49.8052 51.0471 49.1774 52.4651 48.4575 53.3789C48.506 53.4613 48.5569 53.5413 48.6078 53.6213C49.3786 52.6833 50.0355 51.2119 50.4984 49.314C50.5154 49.2437 50.4718 49.1734 50.4015 49.1565L50.3991 49.1541Z" fill="#F4B527"/>
<path d="M50.6883 48.452C50.7489 48.1441 50.8047 47.8266 50.8531 47.5115C51.0131 46.4789 51.5003 45.5554 52.2663 44.8379C52.3196 44.7894 52.322 44.7046 52.2736 44.6513C52.2251 44.5979 52.1402 44.5955 52.0869 44.644C51.2773 45.4003 50.761 46.3771 50.5938 47.4703C50.5453 47.783 50.492 48.0956 50.4314 48.401C50.4168 48.4713 50.4629 48.5416 50.5356 48.5562C50.5453 48.5562 50.5526 48.5562 50.5599 48.5562C50.6205 48.5562 50.6762 48.5126 50.6883 48.4495V48.452Z" fill="#F4B527"/>
<path d="M52.7729 44.1036C52.7123 44.1424 52.6954 44.2248 52.7342 44.2854C52.7584 44.3242 52.802 44.346 52.8432 44.346C52.8675 44.346 52.8917 44.3388 52.9135 44.3242C53.6722 43.8322 54.5521 43.5704 55.4586 43.5704H58.9054C58.8715 43.4807 58.8375 43.3959 58.8012 43.3086H55.4586C54.5012 43.3086 53.5704 43.5825 52.7705 44.1036H52.7729Z" fill="#F4B527"/>
</g>
<path d="M26.3019 36.2283C35.1332 35.0296 43.5211 40.8417 45.3874 49.7005C47.255 58.5592 41.9251 67.2616 33.3621 69.7289C33.0347 69.8229 32.719 69.7809 32.4266 69.6059C32.1347 69.4303 31.9493 69.17 31.879 68.8371L30.0719 60.2615C29.9516 59.6903 30.2568 59.1273 30.8016 58.9167C33.5372 57.8576 35.1772 54.9484 34.5519 51.9832C33.9271 49.0191 31.2527 47.019 28.3222 47.154C27.7391 47.1808 27.2329 46.7887 27.112 46.2175L25.3049 37.6419C25.2346 37.309 25.299 36.9957 25.4953 36.7177C25.6916 36.4391 25.9647 36.2731 26.3013 36.2277L26.3019 36.2283Z" fill="#374E9D"/>
<path d="M25.8855 36.3623C25.7341 36.446 25.6028 36.5648 25.4953 36.718C25.2991 36.996 25.2346 37.3094 25.3049 37.6423L27.112 46.2178C27.2323 46.7891 27.7385 47.1812 28.3222 47.1543C31.2527 47.0194 33.9271 49.0195 34.5519 51.9835C34.6049 52.2339 34.6409 52.4832 34.6624 52.7319C34.8135 54.5015 34.1808 56.1955 33.0193 57.4252C33.0078 57.4374 32.9969 57.449 32.9854 57.4605L32.954 57.4928C32.9334 57.5141 32.9129 57.5348 32.8917 57.5561L32.8566 57.5909C32.8355 57.6109 32.8137 57.6317 32.7925 57.6524L32.7605 57.6828C32.7369 57.7041 32.7145 57.726 32.6909 57.7474L32.6625 57.773C32.6389 57.7937 32.6159 57.8144 32.5917 57.8345L32.559 57.8631C32.536 57.8826 32.5124 57.9027 32.4888 57.9222L32.4543 57.9502C32.4295 57.971 32.4041 57.9917 32.3787 58.0118L32.3508 58.0337C32.3242 58.0545 32.2982 58.0746 32.2722 58.0947L32.2443 58.1154C32.2171 58.1361 32.1892 58.1563 32.1614 58.177L32.1317 58.1977C32.1027 58.2184 32.0736 58.2392 32.0446 58.2593L32.0228 58.2739C31.9925 58.2947 31.9628 58.3154 31.9319 58.3349L31.9071 58.3508C31.8768 58.3709 31.8453 58.3898 31.8145 58.41L31.7957 58.4216C31.7636 58.4417 31.7315 58.4612 31.6988 58.4801L31.6746 58.4948C31.6407 58.5149 31.6067 58.5338 31.5728 58.5528L31.5559 58.5619C31.522 58.5809 31.4868 58.5998 31.4517 58.6181L31.4353 58.6273C31.4008 58.6456 31.3663 58.6633 31.3311 58.6804L31.3112 58.6908C31.2754 58.7091 31.2397 58.7263 31.2033 58.7428L31.1851 58.7513C31.1482 58.7684 31.1112 58.7855 31.0737 58.8021L31.0573 58.8094C31.0203 58.8259 30.9834 58.8418 30.9458 58.8577L30.93 58.8638C30.8925 58.8791 30.8543 58.895 30.8161 58.9097L30.8016 58.9152L30.7998 58.9153C30.7313 58.9422 30.6671 58.9746 30.6065 59.0112C36.4513 57.3675 40.097 51.4513 38.8259 45.4232C37.5751 39.486 32.0045 35.5715 26.0928 36.2724C26.0194 36.2957 25.9497 36.3257 25.8837 36.3617L25.8855 36.3623Z" fill="url(#paint2_linear_4985_75775)"/>
<path d="M77.3653 47.4623V42.2518H90.7743V37.5767L77.0049 36.399V26.6205L81.1862 22.4806H96.4695V27.6911H83.0605V32.0094L96.8299 33.1871V43.3225L92.6486 47.4623H77.3653Z" fill="#324F9F"/>
<path d="M100.061 47.605V42.9299L103.161 42.7515V27.1915L100.061 27.013V22.3379L106.189 22.6234L112.317 22.3379V27.013L109.217 27.1915V42.7515L112.317 42.9299V47.605L106.189 47.3195L100.061 47.605Z" fill="#324F9F"/>
<path d="M115.658 47.4623V22.4806H122.939L127.985 33.1157L133.032 22.4806H140.313V47.4623H134.365V30.1179L129.283 40.4674H126.688L121.605 30.1179V47.4623H115.658Z" fill="#324F9F"/>
<path d="M143.495 38.8258V33.2584H152.867V38.8258H143.495Z" fill="#324F9F"/>
<path d="M154.699 47.4623L160.25 22.4806H172.001L177.552 47.4623H171.136L170.091 42.1091H162.161L161.115 47.4623H154.699ZM162.918 37.7908H169.334L167.243 27.2272H165.008L162.918 37.7908Z" fill="#324F9F"/>
<path d="M179.94 47.4623V42.2518H193.349V37.5767L179.58 36.399V26.6205L183.761 22.4806H199.044V27.6911H185.635V32.0094L199.405 33.1871V43.3225L195.224 47.4623H179.94Z" fill="#324F9F"/>
<path d="M202.744 47.4623V22.4806H208.476L218.172 38.3618V22.4806H223.795V47.4623H218.064L208.367 31.5811V47.4623H202.744Z" fill="#324F9F"/>
<defs>
<linearGradient id="paint0_linear_4985_75775" x1="49.0332" y1="36.1037" x2="44.9932" y2="19.3066" gradientUnits="userSpaceOnUse">
<stop stop-color="#F4B527"/>
<stop offset="1" stop-color="#374E9D"/>
</linearGradient>
<linearGradient id="paint1_linear_4985_75775" x1="26.5469" y1="15.7211" x2="17.4738" y2="30.4229" gradientUnits="userSpaceOnUse">
<stop stop-color="#F4B527"/>
<stop offset="1" stop-color="#374E9D"/>
</linearGradient>
<linearGradient id="paint2_linear_4985_75775" x1="22.5053" y1="44.887" x2="38.7596" y2="50.7404" gradientUnits="userSpaceOnUse">
<stop stop-color="#F4B527"/>
<stop offset="1" stop-color="#374E9D"/>
</linearGradient>
</defs>
</svg>
