<svg width="30" height="24" viewBox="0 0 30 24" fill="none" xmlns="http://www.w3.org/2000/svg">
<path d="M29.6756 7.05586H16.5374C16.2825 7.05586 16.1526 6.7453 16.3344 6.56275L22.6993 0.168914C22.9236 -0.0563046 23.2871 -0.0563046 23.5114 0.168914L29.8786 6.56275C30.0604 6.7453 29.9306 7.05586 29.6756 7.05586Z" fill="#F4B527"/>
<path d="M8.41188 16.9453H21.55C21.805 16.9453 21.9349 17.2559 21.7531 17.4384L15.3858 23.8323C15.1616 24.0575 14.798 24.0575 14.5737 23.8323L8.20648 17.4384C8.02469 17.2559 8.15454 16.9453 8.40951 16.9453H8.41188Z" fill="#374E9D"/>
<path d="M13.4261 7.05586H0.287932C0.0329596 7.05586 -0.0968874 6.7453 0.0848984 6.56275L6.44976 0.168914C6.67404 -0.0563046 7.03762 -0.0563046 7.2619 0.168914L13.6291 6.56275C13.8109 6.7453 13.6811 7.05586 13.4261 7.05586Z" fill="#F4B527"/>
<path d="M0.0848984 9.27827L5.65888 14.8755C5.87371 15.0913 6.16646 15.2146 6.47101 15.2146H23.4928C23.7973 15.2146 24.0901 15.0936 24.3049 14.8755L29.8789 9.27827C30.0607 9.09572 29.9308 8.78516 29.6759 8.78516H0.287932C0.0329596 8.78516 -0.0968874 9.09572 0.0848984 9.27827Z" fill="#374E9D"/>
</svg>
