<svg width="288" height="25" viewBox="0 0 288 25" fill="none" xmlns="http://www.w3.org/2000/svg">
<path d="M29.6756 7.55586H16.5374C16.2825 7.55586 16.1526 7.2453 16.3344 7.06275L22.6993 0.668914C22.9236 0.443695 23.2871 0.443695 23.5114 0.668914L29.8786 7.06275C30.0604 7.2453 29.9306 7.55586 29.6756 7.55586Z" fill="#F4B527"/>
<path d="M8.41188 17.4453H21.55C21.805 17.4453 21.9349 17.7559 21.7531 17.9384L15.3858 24.3323C15.1616 24.5575 14.798 24.5575 14.5737 24.3323L8.20648 17.9384C8.02469 17.7559 8.15454 17.4453 8.40951 17.4453H8.41188Z" fill="#374E9D"/>
<path d="M13.4261 7.55586H0.287932C0.0329596 7.55586 -0.0968874 7.2453 0.0848984 7.06275L6.44976 0.668914C6.67404 0.443695 7.03762 0.443695 7.2619 0.668914L13.6291 7.06275C13.8109 7.2453 13.6811 7.55586 13.4261 7.55586Z" fill="#F4B527"/>
<path d="M0.0848984 9.77827L5.65888 15.3755C5.87371 15.5913 6.16646 15.7146 6.47101 15.7146H23.4928C23.7973 15.7146 24.0901 15.5936 24.3049 15.3755L29.8789 9.77827C30.0607 9.59572 29.9308 9.28516 29.6759 9.28516H0.287932C0.0329596 9.28516 -0.0968874 9.59572 0.0848984 9.77827Z" fill="#374E9D"/>
<path d="M52.6329 19.27C51.3369 19.27 50.2329 18.988 49.3209 18.424C48.4089 17.854 47.7099 17.062 47.2239 16.048C46.7439 15.034 46.5039 13.858 46.5039 12.52C46.5039 11.182 46.7439 10.006 47.2239 8.992C47.7099 7.978 48.4089 7.189 49.3209 6.625C50.2329 6.055 51.3369 5.77 52.6329 5.77C54.1269 5.77 55.3629 6.148 56.3409 6.904C57.3249 7.66 58.0089 8.677 58.3929 9.955L56.4849 10.468C56.2329 9.562 55.7829 8.851 55.1349 8.335C54.4929 7.819 53.6589 7.561 52.6329 7.561C51.7149 7.561 50.9499 7.768 50.3379 8.182C49.7259 8.596 49.2639 9.175 48.9519 9.919C48.6459 10.663 48.4929 11.53 48.4929 12.52C48.4869 13.51 48.6369 14.377 48.9429 15.121C49.2549 15.865 49.7169 16.444 50.3289 16.858C50.9469 17.272 51.7149 17.479 52.6329 17.479C53.6589 17.479 54.4929 17.221 55.1349 16.705C55.7829 16.183 56.2329 15.472 56.4849 14.572L58.3929 15.085C58.0089 16.363 57.3249 17.38 56.3409 18.136C55.3629 18.892 54.1269 19.27 52.6329 19.27ZM60.4623 19V9.28H62.1363V11.638L61.9023 11.332C62.0223 11.02 62.1783 10.735 62.3703 10.477C62.5623 10.213 62.7843 9.997 63.0363 9.829C63.2823 9.649 63.5553 9.511 63.8553 9.415C64.1613 9.313 64.4733 9.253 64.7913 9.235C65.1093 9.211 65.4153 9.226 65.7093 9.28V11.044C65.3913 10.96 65.0373 10.936 64.6473 10.972C64.2633 11.008 63.9093 11.131 63.5853 11.341C63.2793 11.539 63.0363 11.779 62.8563 12.061C62.6823 12.343 62.5563 12.658 62.4783 13.006C62.4003 13.348 62.3613 13.711 62.3613 14.095V19H60.4623ZM69.9946 19.27C69.2746 19.27 68.6716 19.138 68.1856 18.874C67.6996 18.604 67.3306 18.25 67.0786 17.812C66.8326 17.368 66.7096 16.882 66.7096 16.354C66.7096 15.862 66.7966 15.43 66.9706 15.058C67.1446 14.686 67.4026 14.371 67.7446 14.113C68.0866 13.849 68.5066 13.636 69.0046 13.474C69.4366 13.348 69.9256 13.237 70.4716 13.141C71.0176 13.045 71.5906 12.955 72.1906 12.871C72.7966 12.787 73.3966 12.703 73.9906 12.619L73.3066 12.997C73.3186 12.235 73.1566 11.671 72.8206 11.305C72.4906 10.933 71.9206 10.747 71.1106 10.747C70.6006 10.747 70.1326 10.867 69.7066 11.107C69.2806 11.341 68.9836 11.731 68.8156 12.277L67.0606 11.737C67.3006 10.903 67.7566 10.24 68.4286 9.748C69.1066 9.256 70.0066 9.01 71.1286 9.01C71.9986 9.01 72.7546 9.16 73.3966 9.46C74.0446 9.754 74.5186 10.222 74.8186 10.864C74.9746 11.182 75.0706 11.518 75.1066 11.872C75.1426 12.226 75.1606 12.607 75.1606 13.015V19H73.4956V16.777L73.8196 17.065C73.4176 17.809 72.9046 18.364 72.2806 18.73C71.6626 19.09 70.9006 19.27 69.9946 19.27ZM70.3276 17.731C70.8616 17.731 71.3206 17.638 71.7046 17.452C72.0886 17.26 72.3976 17.017 72.6316 16.723C72.8656 16.429 73.0186 16.123 73.0906 15.805C73.1926 15.517 73.2496 15.193 73.2616 14.833C73.2796 14.473 73.2886 14.185 73.2886 13.969L73.9006 14.194C73.3066 14.284 72.7666 14.365 72.2806 14.437C71.7946 14.509 71.3536 14.581 70.9576 14.653C70.5676 14.719 70.2196 14.8 69.9136 14.896C69.6556 14.986 69.4246 15.094 69.2206 15.22C69.0226 15.346 68.8636 15.499 68.7436 15.679C68.6296 15.859 68.5726 16.078 68.5726 16.336C68.5726 16.588 68.6356 16.822 68.7616 17.038C68.8876 17.248 69.0796 17.416 69.3376 17.542C69.5956 17.668 69.9256 17.731 70.3276 17.731ZM78.4786 19V8.938C78.4786 8.692 78.4876 8.431 78.5056 8.155C78.5236 7.873 78.5746 7.597 78.6586 7.327C78.7486 7.051 78.8956 6.799 79.0996 6.571C79.3456 6.301 79.6156 6.109 79.9096 5.995C80.2036 5.881 80.4946 5.815 80.7826 5.797C81.0766 5.779 81.3466 5.77 81.5926 5.77H82.8166V7.318H81.6826C81.2386 7.318 80.9056 7.429 80.6836 7.651C80.4676 7.867 80.3596 8.176 80.3596 8.578V19H78.4786ZM76.8676 10.792V9.28H82.8166V10.792H76.8676ZM89.9017 19C89.2897 19.12 88.6897 19.171 88.1017 19.153C87.5137 19.135 86.9887 19.021 86.5267 18.811C86.0647 18.601 85.7167 18.271 85.4827 17.821C85.2727 17.419 85.1587 17.011 85.1407 16.597C85.1287 16.177 85.1227 15.703 85.1227 15.175V6.58H87.0127V15.085C87.0127 15.475 87.0157 15.814 87.0217 16.102C87.0337 16.39 87.0967 16.633 87.2107 16.831C87.4267 17.203 87.7687 17.416 88.2367 17.47C88.7107 17.518 89.2657 17.497 89.9017 17.407V19ZM83.2597 10.792V9.28H89.9017V10.792H83.2597ZM95.895 19.27C94.929 19.27 94.08 19.06 93.348 18.64C92.622 18.214 92.055 17.623 91.647 16.867C91.245 16.105 91.044 15.223 91.044 14.221C91.044 13.159 91.242 12.238 91.638 11.458C92.04 10.678 92.598 10.075 93.312 9.649C94.026 9.223 94.857 9.01 95.805 9.01C96.795 9.01 97.638 9.241 98.334 9.703C99.03 10.159 99.549 10.81 99.891 11.656C100.239 12.502 100.377 13.507 100.305 14.671H98.424V13.987C98.412 12.859 98.196 12.025 97.776 11.485C97.362 10.945 96.729 10.675 95.877 10.675C94.935 10.675 94.227 10.972 93.753 11.566C93.279 12.16 93.042 13.018 93.042 14.14C93.042 15.208 93.279 16.036 93.753 16.624C94.227 17.206 94.911 17.497 95.805 17.497C96.393 17.497 96.9 17.365 97.326 17.101C97.758 16.831 98.094 16.447 98.334 15.949L100.179 16.534C99.801 17.404 99.228 18.079 98.46 18.559C97.692 19.033 96.837 19.27 95.895 19.27ZM92.43 14.671V13.204H99.369V14.671H92.43ZM106.275 19.27C105.369 19.27 104.586 19.045 103.926 18.595C103.272 18.145 102.765 17.533 102.405 16.759C102.051 15.979 101.874 15.103 101.874 14.131C101.874 13.153 102.054 12.28 102.414 11.512C102.774 10.738 103.284 10.129 103.944 9.685C104.61 9.235 105.399 9.01 106.311 9.01C107.229 9.01 108 9.235 108.624 9.685C109.254 10.129 109.728 10.738 110.046 11.512C110.37 12.286 110.532 13.159 110.532 14.131C110.532 15.103 110.37 15.976 110.046 16.75C109.722 17.524 109.245 18.139 108.615 18.595C107.985 19.045 107.205 19.27 106.275 19.27ZM106.536 17.569C107.154 17.569 107.658 17.422 108.048 17.128C108.438 16.834 108.723 16.429 108.903 15.913C109.083 15.397 109.173 14.803 109.173 14.131C109.173 13.459 109.08 12.865 108.894 12.349C108.714 11.833 108.432 11.431 108.048 11.143C107.67 10.855 107.187 10.711 106.599 10.711C105.975 10.711 105.462 10.864 105.06 11.17C104.658 11.476 104.358 11.887 104.16 12.403C103.968 12.919 103.872 13.495 103.872 14.131C103.872 14.773 103.968 15.355 104.16 15.877C104.358 16.393 104.652 16.804 105.042 17.11C105.438 17.416 105.936 17.569 106.536 17.569ZM109.173 19V12.007H108.957V6.04H110.847V19H109.173ZM121.712 19.27C120.782 19.27 120.002 19.045 119.372 18.595C118.742 18.139 118.265 17.524 117.941 16.75C117.617 15.976 117.455 15.103 117.455 14.131C117.455 13.159 117.614 12.286 117.932 11.512C118.256 10.738 118.73 10.129 119.354 9.685C119.984 9.235 120.758 9.01 121.676 9.01C122.588 9.01 123.374 9.235 124.034 9.685C124.7 10.129 125.213 10.738 125.573 11.512C125.933 12.28 126.113 13.153 126.113 14.131C126.113 15.103 125.933 15.979 125.573 16.759C125.219 17.533 124.712 18.145 124.052 18.595C123.398 19.045 122.618 19.27 121.712 19.27ZM117.14 19V6.04H119.03V12.007H118.814V19H117.14ZM121.451 17.569C122.051 17.569 122.546 17.416 122.936 17.11C123.332 16.804 123.626 16.393 123.818 15.877C124.016 15.355 124.115 14.773 124.115 14.131C124.115 13.495 124.016 12.919 123.818 12.403C123.626 11.887 123.329 11.476 122.927 11.17C122.525 10.864 122.012 10.711 121.388 10.711C120.8 10.711 120.314 10.855 119.93 11.143C119.552 11.431 119.27 11.833 119.084 12.349C118.904 12.865 118.814 13.459 118.814 14.131C118.814 14.803 118.904 15.397 119.084 15.913C119.264 16.429 119.549 16.834 119.939 17.128C120.329 17.422 120.833 17.569 121.451 17.569ZM128.906 23.32L130.787 18.199L130.814 19.711L126.575 9.28H128.537L131.705 17.335H131.129L134.153 9.28H136.061L130.697 23.32H128.906Z" fill="#78777B"/>
<path d="M140.355 19L144.567 6.04H147.276L151.488 19H149.535L145.656 7.174H146.142L142.308 19H140.355ZM142.542 16.075V14.311H149.31V16.075H142.542ZM154.084 19V8.938C154.084 8.692 154.093 8.431 154.111 8.155C154.129 7.873 154.18 7.597 154.264 7.327C154.354 7.051 154.501 6.799 154.705 6.571C154.951 6.301 155.221 6.109 155.515 5.995C155.809 5.881 156.1 5.815 156.388 5.797C156.682 5.779 156.952 5.77 157.198 5.77H158.422V7.318H157.288C156.844 7.318 156.511 7.429 156.289 7.651C156.073 7.867 155.965 8.176 155.965 8.578V19H154.084ZM152.473 10.792V9.28H158.422V10.792H152.473ZM160.312 7.687V5.86H162.193V7.687H160.312ZM160.312 19V9.28H162.193V19H160.312ZM165.17 19V5.77H167.051V19H165.17ZM172.588 19.27C171.868 19.27 171.265 19.138 170.779 18.874C170.293 18.604 169.924 18.25 169.672 17.812C169.426 17.368 169.303 16.882 169.303 16.354C169.303 15.862 169.39 15.43 169.564 15.058C169.738 14.686 169.996 14.371 170.338 14.113C170.68 13.849 171.1 13.636 171.598 13.474C172.03 13.348 172.519 13.237 173.065 13.141C173.611 13.045 174.184 12.955 174.784 12.871C175.39 12.787 175.99 12.703 176.584 12.619L175.9 12.997C175.912 12.235 175.75 11.671 175.414 11.305C175.084 10.933 174.514 10.747 173.704 10.747C173.194 10.747 172.726 10.867 172.3 11.107C171.874 11.341 171.577 11.731 171.409 12.277L169.654 11.737C169.894 10.903 170.35 10.24 171.022 9.748C171.7 9.256 172.6 9.01 173.722 9.01C174.592 9.01 175.348 9.16 175.99 9.46C176.638 9.754 177.112 10.222 177.412 10.864C177.568 11.182 177.664 11.518 177.7 11.872C177.736 12.226 177.754 12.607 177.754 13.015V19H176.089V16.777L176.413 17.065C176.011 17.809 175.498 18.364 174.874 18.73C174.256 19.09 173.494 19.27 172.588 19.27ZM172.921 17.731C173.455 17.731 173.914 17.638 174.298 17.452C174.682 17.26 174.991 17.017 175.225 16.723C175.459 16.429 175.612 16.123 175.684 15.805C175.786 15.517 175.843 15.193 175.855 14.833C175.873 14.473 175.882 14.185 175.882 13.969L176.494 14.194C175.9 14.284 175.36 14.365 174.874 14.437C174.388 14.509 173.947 14.581 173.551 14.653C173.161 14.719 172.813 14.8 172.507 14.896C172.249 14.986 172.018 15.094 171.814 15.22C171.616 15.346 171.457 15.499 171.337 15.679C171.223 15.859 171.166 16.078 171.166 16.336C171.166 16.588 171.229 16.822 171.355 17.038C171.481 17.248 171.673 17.416 171.931 17.542C172.189 17.668 172.519 17.731 172.921 17.731ZM183.875 19V6.04H185.576L190.274 15.787L194.945 6.04H196.664V18.991H194.882V10.126L190.697 19H189.842L185.648 10.126V19H183.875ZM203.586 19.27C202.62 19.27 201.771 19.06 201.039 18.64C200.313 18.214 199.746 17.623 199.338 16.867C198.936 16.105 198.735 15.223 198.735 14.221C198.735 13.159 198.933 12.238 199.329 11.458C199.731 10.678 200.289 10.075 201.003 9.649C201.717 9.223 202.548 9.01 203.496 9.01C204.486 9.01 205.329 9.241 206.025 9.703C206.721 10.159 207.24 10.81 207.582 11.656C207.93 12.502 208.068 13.507 207.996 14.671H206.115V13.987C206.103 12.859 205.887 12.025 205.467 11.485C205.053 10.945 204.42 10.675 203.568 10.675C202.626 10.675 201.918 10.972 201.444 11.566C200.97 12.16 200.733 13.018 200.733 14.14C200.733 15.208 200.97 16.036 201.444 16.624C201.918 17.206 202.602 17.497 203.496 17.497C204.084 17.497 204.591 17.365 205.017 17.101C205.449 16.831 205.785 16.447 206.025 15.949L207.87 16.534C207.492 17.404 206.919 18.079 206.151 18.559C205.383 19.033 204.528 19.27 203.586 19.27ZM200.121 14.671V13.204H207.06V14.671H200.121ZM213.967 19.27C213.061 19.27 212.278 19.045 211.618 18.595C210.964 18.145 210.457 17.533 210.097 16.759C209.743 15.979 209.566 15.103 209.566 14.131C209.566 13.153 209.746 12.28 210.106 11.512C210.466 10.738 210.976 10.129 211.636 9.685C212.302 9.235 213.091 9.01 214.003 9.01C214.921 9.01 215.692 9.235 216.316 9.685C216.946 10.129 217.42 10.738 217.738 11.512C218.062 12.286 218.224 13.159 218.224 14.131C218.224 15.103 218.062 15.976 217.738 16.75C217.414 17.524 216.937 18.139 216.307 18.595C215.677 19.045 214.897 19.27 213.967 19.27ZM214.228 17.569C214.846 17.569 215.35 17.422 215.74 17.128C216.13 16.834 216.415 16.429 216.595 15.913C216.775 15.397 216.865 14.803 216.865 14.131C216.865 13.459 216.772 12.865 216.586 12.349C216.406 11.833 216.124 11.431 215.74 11.143C215.362 10.855 214.879 10.711 214.291 10.711C213.667 10.711 213.154 10.864 212.752 11.17C212.35 11.476 212.05 11.887 211.852 12.403C211.66 12.919 211.564 13.495 211.564 14.131C211.564 14.773 211.66 15.355 211.852 15.877C212.05 16.393 212.344 16.804 212.734 17.11C213.13 17.416 213.628 17.569 214.228 17.569ZM216.865 19V12.007H216.649V6.04H218.539V19H216.865ZM221.327 7.687V5.86H223.208V7.687H221.327ZM221.327 19V9.28H223.208V19H221.327ZM228.745 19.27C228.025 19.27 227.422 19.138 226.936 18.874C226.45 18.604 226.081 18.25 225.829 17.812C225.583 17.368 225.46 16.882 225.46 16.354C225.46 15.862 225.547 15.43 225.721 15.058C225.895 14.686 226.153 14.371 226.495 14.113C226.837 13.849 227.257 13.636 227.755 13.474C228.187 13.348 228.676 13.237 229.222 13.141C229.768 13.045 230.341 12.955 230.941 12.871C231.547 12.787 232.147 12.703 232.741 12.619L232.057 12.997C232.069 12.235 231.907 11.671 231.571 11.305C231.241 10.933 230.671 10.747 229.861 10.747C229.351 10.747 228.883 10.867 228.457 11.107C228.031 11.341 227.734 11.731 227.566 12.277L225.811 11.737C226.051 10.903 226.507 10.24 227.179 9.748C227.857 9.256 228.757 9.01 229.879 9.01C230.749 9.01 231.505 9.16 232.147 9.46C232.795 9.754 233.269 10.222 233.569 10.864C233.725 11.182 233.821 11.518 233.857 11.872C233.893 12.226 233.911 12.607 233.911 13.015V19H232.246V16.777L232.57 17.065C232.168 17.809 231.655 18.364 231.031 18.73C230.413 19.09 229.651 19.27 228.745 19.27ZM229.078 17.731C229.612 17.731 230.071 17.638 230.455 17.452C230.839 17.26 231.148 17.017 231.382 16.723C231.616 16.429 231.769 16.123 231.841 15.805C231.943 15.517 232 15.193 232.012 14.833C232.03 14.473 232.039 14.185 232.039 13.969L232.651 14.194C232.057 14.284 231.517 14.365 231.031 14.437C230.545 14.509 230.104 14.581 229.708 14.653C229.318 14.719 228.97 14.8 228.664 14.896C228.406 14.986 228.175 15.094 227.971 15.22C227.773 15.346 227.614 15.499 227.494 15.679C227.38 15.859 227.323 16.078 227.323 16.336C227.323 16.588 227.386 16.822 227.512 17.038C227.638 17.248 227.83 17.416 228.088 17.542C228.346 17.668 228.676 17.731 229.078 17.731ZM240.032 19V6.04H241.913V12.088L247.34 6.04H249.68L243.947 12.367L250.103 19H247.691L241.913 12.808V19H240.032ZM254.205 19.27C253.485 19.27 252.882 19.138 252.396 18.874C251.91 18.604 251.541 18.25 251.289 17.812C251.043 17.368 250.92 16.882 250.92 16.354C250.92 15.862 251.007 15.43 251.181 15.058C251.355 14.686 251.613 14.371 251.955 14.113C252.297 13.849 252.717 13.636 253.215 13.474C253.647 13.348 254.136 13.237 254.682 13.141C255.228 13.045 255.801 12.955 256.401 12.871C257.007 12.787 257.607 12.703 258.201 12.619L257.517 12.997C257.529 12.235 257.367 11.671 257.031 11.305C256.701 10.933 256.131 10.747 255.321 10.747C254.811 10.747 254.343 10.867 253.917 11.107C253.491 11.341 253.194 11.731 253.026 12.277L251.271 11.737C251.511 10.903 251.967 10.24 252.639 9.748C253.317 9.256 254.217 9.01 255.339 9.01C256.209 9.01 256.965 9.16 257.607 9.46C258.255 9.754 258.729 10.222 259.029 10.864C259.185 11.182 259.281 11.518 259.317 11.872C259.353 12.226 259.371 12.607 259.371 13.015V19H257.706V16.777L258.03 17.065C257.628 17.809 257.115 18.364 256.491 18.73C255.873 19.09 255.111 19.27 254.205 19.27ZM254.538 17.731C255.072 17.731 255.531 17.638 255.915 17.452C256.299 17.26 256.608 17.017 256.842 16.723C257.076 16.429 257.229 16.123 257.301 15.805C257.403 15.517 257.46 15.193 257.472 14.833C257.49 14.473 257.499 14.185 257.499 13.969L258.111 14.194C257.517 14.284 256.977 14.365 256.491 14.437C256.005 14.509 255.564 14.581 255.168 14.653C254.778 14.719 254.43 14.8 254.124 14.896C253.866 14.986 253.635 15.094 253.431 15.22C253.233 15.346 253.074 15.499 252.954 15.679C252.84 15.859 252.783 16.078 252.783 16.336C252.783 16.588 252.846 16.822 252.972 17.038C253.098 17.248 253.29 17.416 253.548 17.542C253.806 17.668 254.136 17.731 254.538 17.731ZM261.798 19V9.28H263.472V11.638L263.238 11.332C263.358 11.02 263.514 10.735 263.706 10.477C263.898 10.213 264.12 9.997 264.372 9.829C264.618 9.649 264.891 9.511 265.191 9.415C265.497 9.313 265.809 9.253 266.127 9.235C266.445 9.211 266.751 9.226 267.045 9.28V11.044C266.727 10.96 266.373 10.936 265.983 10.972C265.599 11.008 265.245 11.131 264.921 11.341C264.615 11.539 264.372 11.779 264.192 12.061C264.018 12.343 263.892 12.658 263.814 13.006C263.736 13.348 263.697 13.711 263.697 14.095V19H261.798ZM269.917 23.32L271.798 18.199L271.825 19.711L267.586 9.28H269.548L272.716 17.335H272.14L275.164 9.28H277.072L271.708 23.32H269.917ZM280.965 19.27C280.245 19.27 279.642 19.138 279.156 18.874C278.67 18.604 278.301 18.25 278.049 17.812C277.803 17.368 277.68 16.882 277.68 16.354C277.68 15.862 277.767 15.43 277.941 15.058C278.115 14.686 278.373 14.371 278.715 14.113C279.057 13.849 279.477 13.636 279.975 13.474C280.407 13.348 280.896 13.237 281.442 13.141C281.988 13.045 282.561 12.955 283.161 12.871C283.767 12.787 284.367 12.703 284.961 12.619L284.277 12.997C284.289 12.235 284.127 11.671 283.791 11.305C283.461 10.933 282.891 10.747 282.081 10.747C281.571 10.747 281.103 10.867 280.677 11.107C280.251 11.341 279.954 11.731 279.786 12.277L278.031 11.737C278.271 10.903 278.727 10.24 279.399 9.748C280.077 9.256 280.977 9.01 282.099 9.01C282.969 9.01 283.725 9.16 284.367 9.46C285.015 9.754 285.489 10.222 285.789 10.864C285.945 11.182 286.041 11.518 286.077 11.872C286.113 12.226 286.131 12.607 286.131 13.015V19H284.466V16.777L284.79 17.065C284.388 17.809 283.875 18.364 283.251 18.73C282.633 19.09 281.871 19.27 280.965 19.27ZM281.298 17.731C281.832 17.731 282.291 17.638 282.675 17.452C283.059 17.26 283.368 17.017 283.602 16.723C283.836 16.429 283.989 16.123 284.061 15.805C284.163 15.517 284.22 15.193 284.232 14.833C284.25 14.473 284.259 14.185 284.259 13.969L284.871 14.194C284.277 14.284 283.737 14.365 283.251 14.437C282.765 14.509 282.324 14.581 281.928 14.653C281.538 14.719 281.19 14.8 280.884 14.896C280.626 14.986 280.395 15.094 280.191 15.22C279.993 15.346 279.834 15.499 279.714 15.679C279.6 15.859 279.543 16.078 279.543 16.336C279.543 16.588 279.606 16.822 279.732 17.038C279.858 17.248 280.05 17.416 280.308 17.542C280.566 17.668 280.896 17.731 281.298 17.731Z" fill="#354C9F"/>
</svg>
