<svg width="167" height="49" viewBox="0 0 167 49" fill="none" xmlns="http://www.w3.org/2000/svg">
<path d="M162.596 0.375H4.15365C2.06676 0.375 0.375 2.02373 0.375 4.05754V44.6925C0.375 46.7263 2.06676 48.375 4.15365 48.375H162.596C164.683 48.375 166.375 46.7263 166.375 44.6925V4.05754C166.375 2.02373 164.683 0.375 162.596 0.375Z" fill="#222D33" stroke="#464F54" stroke-width="0.75"/>
<path fill-rule="evenodd" clip-rule="evenodd" d="M16.0269 11.3981C15.7236 11.7132 15.5483 12.1946 15.5483 12.8248V35.1746C15.5483 35.8048 15.7236 36.2862 16.0373 36.5887L16.1184 36.6567L29.1101 24.1345V23.8548L16.108 11.3301L16.0269 11.3981Z" fill="url(#paint0_linear_4985_75926)"/>
<path fill-rule="evenodd" clip-rule="evenodd" d="M33.4328 28.3214L29.0996 24.1448V23.8524L33.4328 19.6758L33.5269 19.7313L38.6525 22.5392C40.1196 23.3357 40.1196 24.6514 38.6525 25.458L33.5269 28.2659L33.4328 28.3214Z" fill="url(#paint1_linear_4985_75926)"/>
<path fill-rule="evenodd" clip-rule="evenodd" d="M33.527 28.2653L29.0997 23.998L16.0269 36.5983C16.5054 37.0923 17.3083 37.1478 18.2052 36.6664L33.527 28.2653Z" fill="url(#paint2_linear_4985_75926)"/>
<path fill-rule="evenodd" clip-rule="evenodd" d="M33.527 19.7306L18.2052 11.3421C17.3083 10.8481 16.5028 10.9162 16.0269 11.4102L29.0997 23.9979L33.527 19.7306Z" fill="url(#paint3_linear_4985_75926)"/>
<path opacity="0.2" fill-rule="evenodd" clip-rule="evenodd" d="M33.4332 28.1758L18.216 36.5088C17.3661 36.9802 16.6077 36.9474 16.1187 36.5189L16.0376 36.5971L16.1187 36.6651C16.6077 37.0911 17.3661 37.1264 18.216 36.655L33.5378 28.2666L33.4332 28.1758Z" fill="black"/>
<path opacity="0.12" fill-rule="evenodd" clip-rule="evenodd" d="M38.6527 25.3112L33.4199 28.1746L33.514 28.2653L38.6396 25.4574C39.3744 25.0541 39.7354 24.5248 39.7354 23.998C39.6909 24.4819 39.317 24.9407 38.6527 25.3112Z" fill="black"/>
<path opacity="0.25" fill-rule="evenodd" clip-rule="evenodd" d="M18.2053 11.4888L38.6526 22.6852C39.3168 23.0456 39.6909 23.517 39.7483 23.9984C39.7483 23.4716 39.3875 22.9423 38.6526 22.539L18.2053 11.3427C16.7382 10.5335 15.5483 11.2091 15.5483 12.8247V12.9709C15.5483 11.3527 16.7382 10.6898 18.2053 11.4888Z" fill="white"/>
<path d="M81.2017 25.0666C78.3755 25.0666 76.0715 27.1369 76.0715 29.9958C76.0715 32.834 78.3755 34.925 81.2017 34.925C84.0278 34.925 86.3318 32.834 86.3318 29.9958C86.3318 27.1369 84.0278 25.0666 81.2017 25.0666ZM81.2017 32.9792C79.6514 32.9792 78.3163 31.7495 78.3163 29.9906C78.3163 28.2161 79.6514 27.0019 81.2017 27.0019C82.752 27.0019 84.0871 28.2161 84.0871 29.9906C84.0871 31.7495 82.752 32.9792 81.2017 32.9792ZM70.0046 25.0666C67.1784 25.0666 64.8745 27.1369 64.8745 29.9958C64.8745 32.834 67.1784 34.925 70.0046 34.925C72.8308 34.925 75.1348 32.834 75.1348 29.9958C75.1348 27.1369 72.8308 25.0666 70.0046 25.0666ZM70.0046 32.9792C68.4542 32.9792 67.1192 31.7495 67.1192 29.9906C67.1192 28.2161 68.4542 27.0019 70.0046 27.0019C71.555 27.0019 72.89 28.2161 72.89 29.9906C72.89 31.7495 71.555 32.9792 70.0046 32.9792ZM56.6866 26.5765V28.6675H61.876C61.7198 29.8453 61.3161 30.7014 60.6971 31.2981C59.9434 32.0245 58.7591 32.8288 56.6866 32.8288C53.4889 32.8288 50.9911 30.3434 50.9911 27.2666C50.9911 24.1845 53.4889 21.7044 56.6866 21.7044C58.4092 21.7044 59.6689 22.3581 60.6002 23.1987L62.129 21.7251C60.8316 20.5317 59.109 19.6133 56.6866 19.6133C52.31 19.6133 48.6279 23.0482 48.6279 27.2666C48.6279 31.4849 52.31 34.9198 56.6866 34.9198C59.0498 34.9198 60.8316 34.1726 62.2259 32.7717C63.6578 31.3915 64.1046 29.451 64.1046 27.8788C64.1046 27.3911 64.067 26.9449 63.9861 26.5713H56.6866V26.5765ZM111.154 28.2005C110.729 27.1005 109.431 25.0666 106.777 25.0666C104.145 25.0666 101.954 27.0642 101.954 29.9958C101.954 32.7561 104.123 34.925 107.03 34.925C109.372 34.925 110.729 33.5448 111.288 32.7406L109.544 31.6198C108.963 32.4396 108.171 32.9844 107.025 32.9844C105.884 32.9844 105.071 32.4811 104.543 31.4901L111.38 28.7661L111.154 28.2005ZM104.182 29.8453C104.123 27.9411 105.711 26.9708 106.853 26.9708C107.746 26.9708 108.5 27.4015 108.753 28.0137L104.182 29.8453ZM98.6217 34.624H100.866V20.1374H98.6217V34.624ZM94.9449 26.1666H94.8696C94.3636 25.5855 93.4 25.0666 92.178 25.0666C89.621 25.0666 87.2793 27.2302 87.2793 30.0114C87.2793 32.7717 89.621 34.9198 92.178 34.9198C93.4 34.9198 94.369 34.3957 94.8696 33.799H94.9449V34.5099C94.9449 36.3934 93.9006 37.4051 92.2157 37.4051C90.843 37.4051 89.987 36.4556 89.6425 35.6514L87.6885 36.4349C88.2483 37.7424 89.7394 39.3457 92.2211 39.3457C94.8534 39.3457 97.0821 37.8514 97.0821 34.2141V25.3675H94.9503V26.1666H94.9449ZM92.3664 32.9792C90.8161 32.9792 89.5187 31.7288 89.5187 30.0114C89.5187 28.2732 90.8161 27.0071 92.3664 27.0071C93.8953 27.0071 95.0957 28.2784 95.0957 30.0114C95.0957 31.7288 93.8953 32.9792 92.3664 32.9792ZM121.677 20.1374H116.305V34.624H118.55V29.1345H121.684C124.171 29.1345 126.614 27.4015 126.614 24.6359C126.614 21.8704 124.165 20.1374 121.677 20.1374ZM121.731 27.1213H118.54V22.1558H121.731C123.411 22.1558 124.358 23.4944 124.358 24.6359C124.365 25.7619 123.411 27.1213 121.731 27.1213ZM135.599 25.0406C133.973 25.0406 132.293 25.7307 131.599 27.2562L133.591 28.0552C134.016 27.2562 134.808 26.9916 135.642 26.9916C136.805 26.9916 137.984 27.6609 137.999 28.8543V29.0048C137.596 28.7816 136.724 28.4444 135.658 28.4444C133.51 28.4444 131.324 29.5807 131.324 31.708C131.324 33.6486 133.085 34.8939 135.055 34.8939C136.562 34.8939 137.397 34.2401 137.92 33.4774H137.994V34.5929H140.158V29.0411C140.158 26.4727 138.166 25.0406 135.599 25.0406ZM135.325 32.9792C134.592 32.9792 133.564 32.6264 133.564 31.7495C133.564 30.634 134.84 30.2033 135.943 30.2033C136.929 30.2033 137.391 30.4109 137.994 30.6859C137.822 32.0297 136.622 32.9792 135.325 32.9792ZM148.051 25.3572L145.477 31.6354H145.402L142.731 25.3572H140.314L144.315 34.1363L142.032 39.0188H144.374L150.543 25.3572H148.051ZM127.841 34.624H130.086V20.1374H127.841V34.624Z" fill="white"/>
<path d="M56.2556 10.185C55.798 9.79581 55.2005 9.54675 54.533 9.54675C53.0418 9.54675 51.8899 10.735 51.8899 12.193C51.8899 13.651 53.0418 14.8288 54.533 14.8288C55.8196 14.8288 56.7509 14.1076 56.8155 12.9713H54.786V12.1619H57.919C57.919 14.5798 56.5839 15.7212 54.5384 15.7212C52.509 15.7212 50.9316 14.1439 50.9316 12.193C50.9316 10.2317 52.509 8.6543 54.5384 8.6543C55.4805 8.6543 56.331 9.00713 56.9555 9.56231L56.2556 10.185Z" fill="white"/>
<path d="M63.464 8.73828V9.60477H60.1964V11.8047H63.0496V12.6764H60.1964V14.7571H63.5663V15.6236H59.2329V8.73828H63.464Z" fill="white"/>
<path d="M69.7141 8.73828V9.61516H67.5501V15.6184H66.5757V9.61516H64.4062V8.73828H69.7141Z" fill="white"/>
<path d="M74.3381 8.73828V15.6236H73.3745V8.73828H74.3381Z" fill="white"/>
<path d="M80.9109 8.73828V9.61516H78.7469V15.6184H77.7724V9.61516H75.603V8.73828H80.9109Z" fill="white"/>
<path d="M87.7152 8.6543C89.7554 8.6543 91.3434 10.2317 91.3434 12.193C91.3434 14.1387 89.7554 15.7212 87.7152 15.7212C85.6857 15.7212 84.1084 14.1439 84.1084 12.193C84.1084 10.2317 85.6803 8.6543 87.7152 8.6543ZM87.7152 14.8184C89.2171 14.8184 90.3691 13.651 90.3691 12.193C90.3691 10.735 89.2171 9.55712 87.7152 9.55712C86.2241 9.55712 85.072 10.735 85.072 12.193C85.072 13.651 86.2241 14.8184 87.7152 14.8184Z" fill="white"/>
<path d="M97.0442 15.6184L93.7874 10.4349V15.6184H92.8237V8.73828H93.7766L97.0011 13.8854V8.73828H97.9648V15.6236H97.0442V15.6184Z" fill="white"/>
<defs>
<linearGradient id="paint0_linear_4985_75926" x1="27.9448" y1="12.5836" x2="7.23917" y2="18.3075" gradientUnits="userSpaceOnUse">
<stop stop-color="#00A0FF"/>
<stop offset="0.00657" stop-color="#00A1FF"/>
<stop offset="0.2601" stop-color="#00BEFF"/>
<stop offset="0.5122" stop-color="#00D2FF"/>
<stop offset="0.7604" stop-color="#00DFFF"/>
<stop offset="1" stop-color="#00E3FF"/>
</linearGradient>
<linearGradient id="paint1_linear_4985_75926" x1="40.5657" y1="23.9986" x2="15.1917" y2="23.9986" gradientUnits="userSpaceOnUse">
<stop stop-color="#FFE000"/>
<stop offset="0.4087" stop-color="#FFBD00"/>
<stop offset="0.7754" stop-color="#FFA500"/>
<stop offset="1" stop-color="#FF9C00"/>
</linearGradient>
<linearGradient id="paint2_linear_4985_75926" x1="31.1196" y1="26.32" x2="15.306" y2="53.9337" gradientUnits="userSpaceOnUse">
<stop stop-color="#FF3A44"/>
<stop offset="1" stop-color="#C31162"/>
</linearGradient>
<linearGradient id="paint3_linear_4985_75926" x1="12.735" y1="3.96369" x2="19.7899" y2="16.296" gradientUnits="userSpaceOnUse">
<stop stop-color="#32A071"/>
<stop offset="0.0685" stop-color="#2DA771"/>
<stop offset="0.4762" stop-color="#15CF74"/>
<stop offset="0.8009" stop-color="#06E775"/>
<stop offset="1" stop-color="#00F076"/>
</linearGradient>
</defs>
</svg>
