<svg width="503" height="386" viewBox="0 0 503 386" fill="none" xmlns="http://www.w3.org/2000/svg">
<g filter="url(#filter0_f_4985_75770)">
<path d="M262.031 474.57C264.114 475.419 266.388 475.777 268.816 475.613C273.231 475.328 276.928 473.422 279.721 469.992L351.716 381.677C356.513 375.796 356.346 367.473 351.307 361.787C326.01 333.244 324.403 289.855 349.286 259.328C351.386 256.747 353.614 254.346 355.955 252.098C372.623 236.118 394.926 228.684 416.852 230.392C417.069 230.409 417.275 230.425 417.486 230.446L418.069 230.501C418.453 230.535 418.83 230.574 419.218 230.614L419.856 230.685C420.232 230.735 420.619 230.787 421.002 230.832L421.572 230.907C421.98 230.972 422.384 231.019 422.793 231.084L423.284 231.162C423.686 231.232 424.083 231.295 424.484 231.376L425.041 231.473C425.426 231.546 425.822 231.621 426.212 231.7L426.777 231.82C427.189 231.902 427.606 231.99 428.018 232.083L428.467 232.185C428.894 232.285 429.31 232.385 429.726 232.484L430.163 232.596C430.595 232.702 431.026 232.82 431.463 232.932L431.915 233.063C432.362 233.187 432.809 233.312 433.25 233.442L433.576 233.543C434.033 233.68 434.485 233.81 434.935 233.963L435.298 234.085C435.749 234.227 436.197 234.391 436.653 234.539L436.924 234.634C437.39 234.794 437.849 234.96 438.308 235.136L438.654 235.261C439.134 235.44 439.603 235.629 440.071 235.817L440.302 235.914C440.771 236.102 441.249 236.303 441.722 236.509L441.948 236.6C442.415 236.799 442.876 237.004 443.336 237.22L443.605 237.337C444.082 237.549 444.547 237.771 445.011 238.004L445.246 238.118C445.721 238.352 446.196 238.586 446.67 238.831L446.878 238.937C447.346 239.176 447.809 239.42 448.277 239.67L448.467 239.779C448.929 240.035 449.402 240.291 449.862 240.557L450.037 240.659L450.052 240.678C450.883 241.15 451.735 241.536 452.6 241.849C388.24 196.145 298.617 207.578 248.016 269.666C198.168 330.806 204.06 419.128 259.429 473.208C260.264 473.76 261.136 474.22 262.04 474.594L262.031 474.57Z" fill="url(#paint0_linear_4985_75770)"/>
</g>
<defs>
<filter id="filter0_f_4985_75770" x="0" y="0" width="666.6" height="689.652" filterUnits="userSpaceOnUse" color-interpolation-filters="sRGB">
<feFlood flood-opacity="0" result="BackgroundImageFix"/>
<feBlend mode="normal" in="SourceGraphic" in2="BackgroundImageFix" result="shape"/>
<feGaussianBlur stdDeviation="107" result="effect1_foregroundBlur_4985_75770"/>
</filter>
<linearGradient id="paint0_linear_4985_75770" x1="375.873" y1="439.149" x2="302.348" y2="226.914" gradientUnits="userSpaceOnUse">
<stop stop-color="#F4B527"/>
</linearGradient>
</defs>
</svg>
