<svg width="576" height="343" viewBox="0 0 576 343" fill="none" xmlns="http://www.w3.org/2000/svg">
<g filter="url(#filter0_f_4985_75771)">
<path d="M243.643 374.811C244.928 375.335 246.331 375.556 247.83 375.455C250.555 375.279 252.836 374.102 254.56 371.985L298.992 317.482C301.952 313.853 301.849 308.716 298.739 305.207C283.127 287.592 282.135 260.814 297.492 241.975C298.788 240.381 300.163 238.9 301.607 237.512C311.894 227.651 325.659 223.063 339.19 224.117C339.324 224.127 339.451 224.137 339.581 224.15L339.941 224.184C340.178 224.205 340.411 224.229 340.651 224.254L341.044 224.298C341.276 224.329 341.515 224.36 341.751 224.388L342.103 224.435C342.355 224.475 342.604 224.504 342.857 224.544L343.16 224.592C343.408 224.635 343.653 224.674 343.9 224.724L344.244 224.784C344.481 224.829 344.726 224.875 344.967 224.924L345.316 224.998C345.57 225.049 345.827 225.103 346.081 225.16L346.358 225.223C346.622 225.285 346.879 225.346 347.135 225.407L347.405 225.477C347.672 225.542 347.938 225.615 348.207 225.684L348.486 225.765C348.762 225.842 349.038 225.919 349.31 225.999L349.511 226.061C349.793 226.146 350.072 226.226 350.35 226.321L350.574 226.396C350.852 226.483 351.129 226.585 351.41 226.676L351.577 226.735C351.865 226.834 352.149 226.936 352.432 227.044L352.645 227.122C352.942 227.232 353.231 227.348 353.52 227.465L353.663 227.524C353.952 227.641 354.247 227.765 354.538 227.892L354.678 227.948C354.966 228.071 355.251 228.197 355.535 228.33L355.701 228.403C355.995 228.534 356.282 228.67 356.568 228.814L356.713 228.885C357.007 229.029 357.3 229.174 357.592 229.325L357.72 229.39C358.01 229.538 358.295 229.688 358.584 229.843L358.702 229.91C358.986 230.068 359.278 230.226 359.562 230.39L359.67 230.453L359.679 230.464C360.193 230.756 360.718 230.994 361.252 231.187C321.532 202.981 266.222 210.037 234.993 248.355C204.23 286.087 207.866 340.595 242.037 373.971C242.552 374.311 243.09 374.595 243.648 374.826L243.643 374.811Z" fill="#324F9F"/>
</g>
<defs>
<filter id="filter0_f_4985_75771" x="0" y="0" width="575.252" height="589.479" filterUnits="userSpaceOnUse" color-interpolation-filters="sRGB">
<feFlood flood-opacity="0" result="BackgroundImageFix"/>
<feBlend mode="normal" in="SourceGraphic" in2="BackgroundImageFix" result="shape"/>
<feGaussianBlur stdDeviation="107" result="effect1_foregroundBlur_4985_75771"/>
</filter>
</defs>
</svg>
