<svg width="233" height="292" viewBox="0 0 233 292" fill="none" xmlns="http://www.w3.org/2000/svg">
<g filter="url(#filter0_f_4985_75769)">
<path d="M176.35 136.347C177.525 136.965 178.84 137.306 180.275 137.349C182.885 137.435 185.165 136.528 187.003 134.674L234.362 86.9362C237.517 83.757 237.896 78.8588 235.263 75.2302C222.044 57.0122 223.592 31.4352 239.96 14.9342C241.342 13.5385 242.788 12.2565 244.292 11.0703C255 2.64185 268.527 -0.443828 281.307 1.81837C281.433 1.84068 281.553 1.86168 281.676 1.88657L282.016 1.95212C282.239 1.9941 282.458 2.03865 282.684 2.08451L283.054 2.16305C283.273 2.21405 283.497 2.26636 283.719 2.31479L284.049 2.39194C284.286 2.45331 284.52 2.50437 284.757 2.56575L285.04 2.64019C285.273 2.70413 285.502 2.7642 285.733 2.83461L286.055 2.92335C286.276 2.98856 286.505 3.0551 286.729 3.1242L287.055 3.22714C287.292 3.29886 287.532 3.37449 287.768 3.45265L288.026 3.53859C288.271 3.62195 288.51 3.70402 288.748 3.78607L288.999 3.87719C289.246 3.96443 289.493 4.05812 289.743 4.14924L290.001 4.25201C290.256 4.3509 290.512 4.44977 290.763 4.55123L290.949 4.62928C291.21 4.73593 291.467 4.8387 291.723 4.95437L291.929 5.04663C292.186 5.15585 292.44 5.27801 292.699 5.39111L292.853 5.46257C293.117 5.58343 293.377 5.70686 293.637 5.83676L293.833 5.93031C294.105 6.06283 294.369 6.20048 294.633 6.33814L294.764 6.40823C295.028 6.54588 295.297 6.69129 295.563 6.83928L295.691 6.90548C295.954 7.04959 296.213 7.19629 296.471 7.34941L296.621 7.43382C296.89 7.58569 297.15 7.74265 297.409 7.90612L297.541 7.9866C297.806 8.15137 298.072 8.31612 298.336 8.48736L298.452 8.56131C298.714 8.72866 298.971 8.89855 299.232 9.07235L299.337 9.14757C299.594 9.32393 299.857 9.50161 300.112 9.68443L300.208 9.75444L300.216 9.76611C300.678 10.0916 301.156 10.3667 301.646 10.6006C266.468 -19.9401 213.171 -18.3713 179.885 15.1906C147.095 48.2388 145.484 100.453 174.9 135.398C175.359 135.77 175.845 136.09 176.354 136.361L176.35 136.347Z" fill="url(#paint0_linear_4985_75769)"/>
</g>
<defs>
<filter id="filter0_f_4985_75769" x="0" y="-165.199" width="455.646" height="456.555" filterUnits="userSpaceOnUse" color-interpolation-filters="sRGB">
<feFlood flood-opacity="0" result="BackgroundImageFix"/>
<feBlend mode="normal" in="SourceGraphic" in2="BackgroundImageFix" result="shape"/>
<feGaussianBlur stdDeviation="77" result="effect1_foregroundBlur_4985_75769"/>
</filter>
<linearGradient id="paint0_linear_4985_75769" x1="245.25" y1="122.08" x2="214.252" y2="-6.80028" gradientUnits="userSpaceOnUse">
<stop stop-color="#F4B527"/>
</linearGradient>
</defs>
</svg>
